<?xml version="1.0" encoding="UTF-8"?>
<svg id="_0" data-name="0" xmlns="http://www.w3.org/2000/svg" viewBox="0 0 1218.66 848.81">
  <defs>
    <style>
      .cls-1 {
        stroke: red;
      }

      .cls-1, .cls-2 {
        fill: none;
        stroke-linecap: round;
        stroke-linejoin: round;
        stroke-width: .71px;
      }

      .cls-2 {
        stroke: #000;
      }
    </style>
  </defs>
  <g id="LWPOLYLINE">
    <polygon class="cls-1" points=".35 393.68 596.81 393.68 596.81 410.53 701.08 306.25 401.61 6.78 395.19 .36 395.19 .35 .35 .35 .35 393.68"/>
  </g>
  <g id="LWPOLYLINE-2" data-name="LWPOLYLINE">
    <polygon class="cls-1" points="596.81 436.65 .35 436.65 .35 829.97 395.19 829.97 395.19 829.97 401.61 823.54 701.08 524.07 596.81 419.79 596.81 436.65"/>
  </g>
  <g id="LWPOLYLINE-3" data-name="LWPOLYLINE">
    <rect class="cls-1" x="570.57" y="731" width="7.09" height="56.69" transform="translate(-368.78 628.37) rotate(-45)"/>
  </g>
  <g id="LWPOLYLINE-4" data-name="LWPOLYLINE">
    <rect class="cls-1" x="627.48" y="688.34" width="7.09" height="72.28" transform="translate(-327.46 658.4) rotate(-45)"/>
  </g>
  <g id="LWPOLYLINE-5" data-name="LWPOLYLINE">
    <polygon class="cls-1" points="1119.78 820.2 1119.78 813.11 1218.3 813.11 1218.3 419.79 823.47 419.79 817.04 426.22 517.57 725.69 621.85 829.97 621.85 813.11 711.96 813.11 711.96 820.2 825.77 820.2 825.77 813.11 1005.97 813.11 1005.97 820.2 1119.78 820.2"/>
  </g>
  <g id="LWPOLYLINE-6" data-name="LWPOLYLINE">
    <rect class="cls-1" x="1104.16" y="652.34" width="7.09" height="113.39" transform="translate(-176.92 990.93) rotate(-45)"/>
  </g>
  <g id="LWPOLYLINE-7" data-name="LWPOLYLINE">
    <rect class="cls-1" x="949.29" y="497.47" width="7.09" height="113.39" transform="translate(-112.77 836.07) rotate(-45)"/>
  </g>
  <g id="LWPOLYLINE-8" data-name="LWPOLYLINE">
    <rect class="cls-1" x="750.31" y="652.2" width="113.39" height="7.09" transform="translate(-227.32 762.7) rotate(-45)"/>
  </g>
  <g id="LWPOLYLINE-9" data-name="LWPOLYLINE">
    <rect class="cls-1" x="545.77" y="67.44" width="56.69" height="7.09" transform="translate(117.96 426.75) rotate(-45)"/>
  </g>
  <g id="LWPOLYLINE-10" data-name="LWPOLYLINE">
    <rect class="cls-1" x="594.88" y="102.3" width="72.28" height="7.09" transform="translate(109.98 477.2) rotate(-45)"/>
  </g>
  <g id="LWPOLYLINE-11" data-name="LWPOLYLINE">
    <polygon class="cls-1" points="1218.3 17.21 1119.78 17.21 1119.78 10.12 1005.97 10.12 1005.97 17.21 825.77 17.21 825.77 10.12 711.96 10.12 711.96 17.21 621.85 17.21 621.85 .35 517.57 104.63 823.47 410.53 1218.3 410.53 1218.3 17.21"/>
  </g>
  <g id="LWPOLYLINE-12" data-name="LWPOLYLINE">
    <rect class="cls-1" x="896.14" y="272.61" width="113.39" height="7.09" transform="translate(83.81 754.64) rotate(-45)"/>
  </g>
  <g id="LWPOLYLINE-13" data-name="LWPOLYLINE">
    <rect class="cls-1" x="1051.01" y="117.75" width="113.39" height="7.09" transform="translate(238.67 818.79) rotate(-45)"/>
  </g>
  <g id="LWPOLYLINE-14" data-name="LWPOLYLINE">
    <rect class="cls-1" x="803.46" y="117.89" width="7.09" height="113.39" transform="translate(112.92 621.77) rotate(-45)"/>
  </g>
  <rect class="cls-2" x="698.4" y="400.14" width="43.3" height="43.3"/>
  <path d="m726.03,427.37h-10.94l-1.1,2.75h1.1c1.08,0,1.86.21,2.32.63.46.42.69.96.69,1.64s-.23,1.2-.69,1.62c-.46.42-1.23.63-2.32.63h-6.06c-1.08,0-1.86-.21-2.32-.63-.46-.42-.69-.96-.69-1.64s.24-1.22.73-1.65,1.28-.62,2.39-.59l7.08-17.62h-2.94c-1.08,0-1.86-.21-2.32-.63-.46-.42-.69-.96-.69-1.64s.23-1.22.69-1.64c.46-.42,1.23-.63,2.32-.63l9.73.02,8.96,22.13c1.05,0,1.75.12,2.09.35.67.48,1.01,1.12,1.01,1.91,0,.66-.23,1.2-.68,1.62-.45.42-1.22.63-2.31.63h-6.06c-1.08,0-1.86-.21-2.32-.63-.46-.42-.69-.96-.69-1.64s.23-1.2.69-1.61c.46-.42,1.23-.63,2.32-.63h1.1l-1.08-2.75Zm-1.87-4.5l-3.62-8.92-3.65,8.92h7.27Z"/>
  <g>
    <path d="m660.93,367.26v-4.86l-1.22-.49v.49c0,.48-.09.83-.28,1.03s-.43.31-.73.31-.53-.1-.72-.31c-.19-.21-.28-.55-.28-1.03v-2.7c0-.48.09-.83.28-1.03.19-.21.43-.31.73-.31s.54.11.73.32.28.57.26,1.06l7.83,3.14v-1.31c0-.48.09-.83.28-1.03s.43-.31.73-.31.54.1.73.31.28.55.28,1.03v4.33s-9.84,3.98-9.84,3.98c0,.47-.05.78-.16.93-.21.3-.5.45-.85.45-.29,0-.53-.1-.72-.3-.19-.2-.28-.54-.28-1.03v-2.7c0-.48.09-.83.28-1.03.19-.21.43-.31.73-.31s.53.1.72.31.28.55.28,1.03v.49l1.22-.48Zm2-.83l3.96-1.61-3.96-1.62v3.23Z"/>
    <path d="m662.47,381.01v-8.36h1.83v8.36h-1.83Z"/>
    <path d="m670.66,389.84h-10.96v2.02c0,.48-.09.83-.28,1.03s-.43.31-.73.31-.53-.1-.72-.31c-.19-.21-.28-.55-.28-1.03v-6.04c0-.48.09-.83.28-1.03.19-.21.43-.31.73-.31s.53.1.72.31.28.55.28,1.03v2.02h8.35l-.47-1.79c-.08-.29-.12-.5-.12-.64,0-.25.1-.47.3-.66s.45-.28.74-.28c.27,0,.48.07.63.21s.29.42.41.86l1.11,4.31Z"/>
  </g>
  <g>
    <path d="m14.76,845.91h-1.14l-1.07-3.21h-3.45l-1.04,3.21h-1.1l3.28-9.91h1.25l3.28,9.91Zm-2.43-4.07l-.98-2.94c-.21-.68-.38-1.3-.51-1.89h-.04c-.13.6-.31,1.22-.49,1.85l-.99,2.98h3Z"/>
    <path d="m15.54,841.53h3.55v.83h-3.55v-.83Z"/>
    <path d="m22.91,845.91v-8.72h-.03l-1.6.92-.26-.81,2.02-1.13h.92v9.74h-1.05Z"/>
    <path d="m29.08,844.21c-.33,1.2-.96,2.83-1.31,3.45l-.79.09c.3-.79.69-2.37.84-3.39l1.26-.14Z"/>
    <path d="m40.77,845.91h-1.14l-1.07-3.21h-3.44l-1.04,3.21h-1.1l3.28-9.91h1.25l3.28,9.91Zm-2.43-4.07l-.98-2.94c-.21-.68-.38-1.3-.51-1.89h-.04c-.13.6-.31,1.22-.49,1.85l-.99,2.98h3Z"/>
    <path d="m41.55,841.53h3.55v.83h-3.55v-.83Z"/>
    <path d="m51.94,845.91h-5.76v-.66l.95-1c2.31-2.34,3.48-3.76,3.48-5.34,0-1.04-.46-2-1.86-2-.78,0-1.48.43-1.95.81l-.36-.75c.6-.53,1.48-.95,2.52-.95,1.96,0,2.74,1.43,2.74,2.77,0,1.83-1.29,3.39-3.3,5.42l-.77.81v.03h4.3v.88Z"/>
    <path d="m64.37,840.5s-.05.03-.08.03c-.08,0-.14-.04-.19-.08-.99.33-2.43.86-3.51,1.33.03.3.04.64.04,1.01,0,.42-.01.88-.04,1.39l-.95.05c.04-.47.06-1.07.06-1.57,0-.2,0-.38-.01-.52-1.47.72-2.67,1.59-2.67,2.37s.9,1.12,2.69,1.12c1.26,0,2.43-.03,3.26-.13v.87c-.75.08-1.92.1-3.26.1-2.5,0-3.6-.6-3.6-1.92,0-1.14,1.51-2.25,3.46-3.22-.08-.82-.44-1.22-.96-1.22-.95,0-1.94.53-3.11,1.83-.36.4-.87.91-1.43,1.42l-.64-.64c1.3-1.14,2.52-2.24,3.28-4.8h-.73s-2.17.01-2.17.01v-.84c.79.01,1.72.01,2.25.01h.88c.14-.61.26-1.17.35-1.87l1.27.16c-.03.13-.13.21-.32.23-.09.52-.21.98-.33,1.44.88-.01,2.78-.22,4.47-.75l.16.87c-1.62.51-3.59.69-4.88.73-.31.97-.64,1.75-.94,2.2h.01c.57-.51,1.43-.84,2.09-.84.88,0,1.44.64,1.61,1.69,1.09-.49,2.47-1.03,3.51-1.43l.4.99Z"/>
    <path d="m68.19,844.65c-.32.9-.9,1.86-1.62,2.41l-.77-.39c.68-.48,1.26-1.35,1.57-2.22l.82.21Zm9.37-1.4v.77h-11.73v-.77h5.38v-1.2h-4.25v-.73h4.25v-1.03h-3.94v-4.89h8.89v4.89h-4.08v1.03h4.49v.73h-4.49v1.2h5.47Zm-9.44-7.12v1.38h3.09v-1.38h-3.09Zm0,3.46h3.09v-1.4h-3.09v1.4Zm1.77,7.36c-.01-.55-.1-1.46-.25-2.16l.79-.07c.17.69.3,1.59.3,2.11l-.85.12Zm5.41-9.44v-1.38h-3.21v1.38h3.21Zm0,2.08v-1.4h-3.21v1.4h3.21Zm-2.24,7.34c-.12-.55-.43-1.44-.73-2.12l.82-.17c.3.66.62,1.55.75,2.09l-.84.19Zm3.71.09c-.34-.6-1.08-1.56-1.73-2.26l.79-.3c.65.66,1.43,1.6,1.78,2.22l-.85.34Z"/>
    <path d="m79.21,837.28c.64.33,1.44.82,1.85,1.18l-.51.62c-.39-.36-1.2-.9-1.85-1.25l.51-.56Zm5.88,7.45v1.16h5.58v.74h-11.96v-.74h5.51v-1.16h-4.11v-.73h4.11v-.88l1.12.06c-.01.09-.08.16-.25.18v.64h4.17v.73h-4.17Zm-5.94-1.94c.56-.7,1.35-1.85,1.98-2.89l.52.48c-.56.96-1.25,2.03-1.74,2.69.03.05.04.1.04.14,0,.05-.01.1-.05.16l-.74-.58Zm.83-7.76c.62.34,1.39.85,1.77,1.21-.43.47-.48.55-.53.61-.36-.38-1.13-.91-1.76-1.27l.52-.55Zm3.43,3.29v-.69c-.58.35-1.22.68-1.85.95-.09-.2-.29-.49-.43-.66,1.69-.66,3.43-1.83,4.26-2.96l1.14.05c-.03.06-.1.13-.21.14,1,1.09,2.81,2.16,4.34,2.69-.17.2-.36.51-.48.73-1.53-.61-3.34-1.74-4.38-2.89-.56.65-1.42,1.34-2.39,1.94h4.8v.7h-1.98v.94h2.98v.71h-2.98v2.09c0,.84-.43.87-1.89.87-.04-.21-.14-.51-.26-.7.53.01,1,.01,1.14.01.14-.01.18-.05.18-.18v-2.09h-2.99v-.71h2.99v-.94h-2.02Zm1.12,2.38c-.04.08-.12.1-.23.1-.53.61-1.48,1.4-2.43,1.94-.13-.14-.35-.35-.52-.48.91-.49,1.83-1.26,2.34-1.92l.85.36Zm5.14,1.98c-.52-.51-1.57-1.3-2.41-1.86l.56-.46c.82.53,1.89,1.3,2.43,1.79l-.58.52Z"/>
    <path d="m98.47,842.7c.35.62.81,1.2,1.35,1.68.79-.38,1.78-.96,2.37-1.4l.78.57c-.05.07-.16.09-.27.07-.6.35-1.55.86-2.33,1.22.95.7,2.11,1.22,3.41,1.51-.18.18-.4.51-.51.73-2.57-.68-4.56-2.2-5.66-4.37h-.03c-.53.48-1.21.94-1.95,1.34l.27.05c-.01.09-.09.16-.26.18v1.56l3.37-.42.03.68c-1.99.29-4.12.58-5.45.75,0,.1-.08.16-.17.18l-.34-.9c.49-.05,1.08-.12,1.72-.19v-1.48c-.88.42-1.82.74-2.68.96-.12-.21-.34-.51-.51-.66,1.66-.38,3.59-1.14,4.85-2.05h-4.67v-.71h5.42v-1.16l1.13.08c-.01.09-.08.16-.25.18v.9h5.49v.71h-5.12Zm-6.81-3.06c.69-.23,1.65-.61,2.65-1l.16.68c-.85.35-1.69.7-2.25.92,0,.1-.05.17-.13.21l-.43-.81Zm.94-3.9c.58.38,1.3.94,1.62,1.36l-.53.53c-.33-.42-1.03-1.01-1.61-1.42l.52-.48Zm3.19-.74c-.01.08-.08.14-.26.17v5.94h-.82v-6.19l1.08.08Zm3.65,4.86v-2.26h-3.26v-.71h3.26v-1.96l1.13.08c-.01.09-.09.16-.26.18v1.7h3.33v.71h-3.33v2.26h2.91v.71h-6.63v-.71h2.85Z"/>
    <path d="m122.1,840.61c.94.22,2.04,1,2.04,2.5,0,.88-.34,1.51-.79,1.95-.66.65-1.73.94-3.22.94-.82,0-1.43-.07-1.83-.1v-9.74c.55-.12,1.33-.21,2.13-.21,1.22,0,2.03.23,2.61.73.47.4.74.97.74,1.72,0,.97-.66,1.82-1.68,2.18v.04Zm-1.57-.36c1.31,0,2.16-.75,2.16-1.77h0c0-1.18-.86-1.69-2.21-1.69-.57,0-.91.04-1.1.09v3.37h1.16Zm-1.16,4.82c.25.05.6.06,1.05.06,1.36,0,2.59-.53,2.59-2.03s-1.29-2.03-2.6-2.03h-1.04v3.99Z"/>
    <path d="m126.87,845.91h-1.08v-10.4h1.08v10.4Z"/>
    <path d="m133.66,844.22c0,.58.01,1.2.1,1.69h-.99l-.1-.91h-.04c-.36.56-1.09,1.07-2.09,1.07-1.35,0-2.07-.99-2.07-2.02,0-1.7,1.48-2.63,4.11-2.61,0-.6,0-1.95-1.61-1.95-.61,0-1.25.17-1.73.51l-.26-.74c.57-.38,1.37-.6,2.16-.6,2,0,2.52,1.42,2.52,2.82v2.74Zm-1.07-1.99c-1.34,0-3.02.19-3.02,1.69,0,.91.57,1.31,1.22,1.31,1.05,0,1.79-.81,1.79-1.66v-1.34Z"/>
    <path d="m140.52,845.65c-.31.16-1.01.4-1.92.4-2.03,0-3.37-1.44-3.37-3.61s1.44-3.78,3.63-3.78c.79,0,1.43.23,1.7.38l-.27.87c-.3-.17-.77-.36-1.46-.36-1.64,0-2.5,1.31-2.5,2.83,0,1.72,1.03,2.79,2.46,2.79.7,0,1.18-.19,1.53-.35l.19.83Z"/>
    <path d="m147.53,845.91h-1.33l-2.44-3.5-.65.74v2.76h-1.08v-10.4h1.08v6.62h.03c.17-.25.42-.56.61-.79l2.12-2.51h1.3l-2.67,2.92,3.03,4.16Z"/>
    <path d="m152.53,840.02c.49-.87,1.31-1.36,2.42-1.36,1.68,0,2.89,1.44,2.89,3.61,0,2.6-1.52,3.8-3.08,3.8-.94,0-1.72-.43-2.13-1.13h-.03v3.87h-1.08v-7.71c0-.92-.03-1.64-.05-2.29h.98l.06,1.21h.03Zm.06,3.07c0,1.38,1.03,2.11,1.99,2.11,1.39,0,2.16-1.2,2.16-2.89,0-1.47-.74-2.77-2.12-2.77-1.21,0-2.03,1.17-2.03,2.2v1.35Z"/>
    <path d="m164.1,844.22c0,.58.01,1.2.1,1.69h-.99l-.1-.91h-.04c-.36.56-1.09,1.07-2.09,1.07-1.35,0-2.07-.99-2.07-2.02,0-1.7,1.48-2.63,4.11-2.61,0-.6,0-1.95-1.61-1.95-.61,0-1.25.17-1.73.51l-.26-.74c.57-.38,1.37-.6,2.16-.6,2,0,2.52,1.42,2.52,2.82v2.74Zm-1.07-1.99c-1.34,0-3.02.19-3.02,1.69,0,.91.57,1.31,1.22,1.31,1.05,0,1.79-.81,1.79-1.66v-1.34Z"/>
    <path d="m166.71,837.58c-.42,0-.7-.33-.7-.74s.3-.73.71-.73.7.33.7.73c0,.46-.3.74-.71.74Zm.55,8.33h-1.08v-7.08h1.08v7.08Z"/>
    <path d="m175.07,845.91h-1.08v-4.19c0-1.16-.42-2.17-1.65-2.17-.92,0-1.86.78-1.86,2.02v4.34h-1.08v-5.27c0-.73-.03-1.26-.05-1.83h.96l.06,1.16h.03c.35-.69,1.17-1.31,2.28-1.31.88,0,2.39.53,2.39,2.94v4.32Z"/>
    <path d="m177.45,837.54l1.07-.36v1.65h1.83v.84h-1.83v4.09c0,.9.27,1.39.96,1.39.32,0,.55-.04.73-.1l.07.83c-.23.1-.6.17-1.05.17-1.72,0-1.77-1.56-1.77-2.31v-4.07h-1.09v-.84h1.09v-1.29Z"/>
    <path d="m190.82,842.31c0,2.64-1.74,3.76-3.32,3.76-1.82,0-3.22-1.37-3.22-3.65,0-2.42,1.51-3.76,3.32-3.76,1.94,0,3.22,1.48,3.22,3.65Zm-3.26-2.81c-1.53,0-2.17,1.51-2.17,2.87,0,1.57.87,2.85,2.15,2.85s2.18-1.27,2.18-2.87c0-1.26-.61-2.85-2.16-2.85Z"/>
    <path d="m198.12,845.91h-1.08v-4.19c0-1.16-.42-2.17-1.65-2.17-.92,0-1.86.78-1.86,2.02v4.34h-1.08v-5.27c0-.73-.03-1.26-.05-1.83h.96l.06,1.16h.03c.35-.69,1.17-1.31,2.28-1.31.88,0,2.39.53,2.39,2.94v4.32Z"/>
    <path d="m210.37,845.91h-1.14l-1.07-3.21h-3.44l-1.04,3.21h-1.1l3.28-9.91h1.25l3.28,9.91Zm-2.43-4.07l-.98-2.94c-.21-.68-.38-1.3-.51-1.89h-.04c-.13.6-.31,1.22-.49,1.85l-.99,2.98h3Z"/>
    <path d="m211.15,841.53h3.55v.83h-3.55v-.83Z"/>
    <path d="m218.52,845.91v-8.72h-.03l-1.6.92-.26-.81,2.02-1.13h.92v9.74h-1.05Z"/>
    <path d="m231.04,844.22c0,.58.01,1.2.1,1.69h-.99l-.1-.91h-.04c-.36.56-1.09,1.07-2.09,1.07-1.35,0-2.07-.99-2.07-2.02,0-1.7,1.48-2.63,4.11-2.61,0-.6,0-1.95-1.61-1.95-.61,0-1.25.17-1.73.51l-.26-.74c.57-.38,1.37-.6,2.16-.6,2,0,2.52,1.42,2.52,2.82v2.74Zm-1.07-1.99c-1.34,0-3.02.19-3.02,1.69,0,.91.57,1.31,1.22,1.31,1.05,0,1.79-.81,1.79-1.66v-1.34Z"/>
    <path d="m238.78,845.91h-1.08v-4.19c0-1.16-.42-2.17-1.65-2.17-.92,0-1.86.78-1.86,2.02v4.34h-1.08v-5.27c0-.73-.03-1.26-.05-1.83h.96l.06,1.16h.03c.35-.69,1.17-1.31,2.28-1.31.88,0,2.39.53,2.39,2.94v4.32Z"/>
    <path d="m246.6,844.16c0,.57.03,1.27.05,1.75h-.96l-.05-1.21h-.04c-.36.74-1.17,1.37-2.31,1.37-1.64,0-2.91-1.42-2.91-3.6,0-2.39,1.4-3.8,3.06-3.8,1.04,0,1.74.51,2.07,1.09h.03v-4.25h1.08v8.65Zm-1.08-2.5c0-1.42-1-2.12-1.91-2.12-1.34,0-2.13,1.25-2.13,2.87,0,1.5.7,2.77,2.09,2.77,1.17,0,1.95-1.03,1.95-2.16v-1.37Z"/>
    <path d="m258.88,845.91h-1.14l-1.07-3.21h-3.45l-1.04,3.21h-1.1l3.28-9.91h1.25l3.28,9.91Zm-2.43-4.07l-.98-2.94c-.21-.68-.38-1.3-.51-1.89h-.04c-.13.6-.31,1.22-.49,1.85l-.99,2.98h3Z"/>
    <path d="m259.66,841.53h3.55v.83h-3.55v-.83Z"/>
    <path d="m270.05,845.91h-5.76v-.66l.95-1c2.31-2.34,3.48-3.76,3.48-5.34,0-1.04-.46-2-1.86-2-.78,0-1.48.43-1.95.81l-.36-.75c.6-.53,1.48-.95,2.52-.95,1.96,0,2.74,1.43,2.74,2.77,0,1.83-1.29,3.39-3.3,5.42l-.77.81v.03h4.3v.88Z"/>
  </g>
  <g>
    <path d="m660.93,445.9v-4.86l-1.22-.49v.49c0,.48-.09.83-.28,1.03s-.43.31-.73.31-.53-.1-.72-.31c-.19-.21-.28-.55-.28-1.03v-2.7c0-.48.09-.83.28-1.03.19-.21.43-.31.73-.31s.54.11.73.32.28.57.26,1.06l7.83,3.14v-1.31c0-.48.09-.83.28-1.03s.43-.31.73-.31.54.1.73.31.28.55.28,1.03v4.33s-9.84,3.98-9.84,3.98c0,.47-.05.78-.16.93-.21.3-.5.45-.85.45-.29,0-.53-.1-.72-.3-.19-.2-.28-.54-.28-1.03v-2.7c0-.48.09-.83.28-1.03.19-.21.43-.31.73-.31s.53.1.72.31.28.55.28,1.03v.49l1.22-.48Zm2-.83l3.96-1.61-3.96-1.62v3.23Z"/>
    <path d="m662.47,459.65v-8.36h1.83v8.36h-1.83Z"/>
    <path d="m659.7,465.58v4.38c.2.24.29.47.29.68,0,.31-.1.55-.3.73-.2.18-.55.27-1.04.27h-.96v-9.12h2.12c2.98,3.61,4.89,5.78,5.74,6.53.44.38.85.57,1.24.57.49,0,.92-.21,1.29-.64.37-.43.56-1,.56-1.7s-.21-1.31-.62-1.79c-.22-.25-.55-.45-.99-.6-.27-.09-.47-.22-.59-.38-.12-.16-.18-.36-.18-.59,0-.27.1-.51.29-.71.2-.2.42-.3.68-.3.39,0,.88.18,1.46.54s1.05.89,1.41,1.58.53,1.45.53,2.26c0,1.26-.38,2.3-1.15,3.11-.76.81-1.69,1.21-2.78,1.21-.55,0-1.07-.12-1.54-.35-.47-.23-1.12-.79-1.96-1.67-.66-.69-1.84-2.04-3.54-4.03Z"/>
  </g>
  <g>
    <path d="m1202.67,464.49v4.86l1.22.49v-.49c0-.48.09-.83.28-1.03s.43-.31.73-.31.53.1.72.31.28.55.28,1.03v2.7c0,.48-.09.83-.28,1.03s-.43.31-.73.31-.54-.11-.73-.32-.28-.57-.26-1.06l-7.83-3.14v1.31c0,.48-.09.83-.28,1.03s-.43.31-.73.31-.54-.1-.73-.31-.28-.55-.28-1.03v-4.33s9.84-3.98,9.84-3.98c0-.47.05-.78.16-.93.21-.3.5-.45.85-.45.29,0,.53.1.72.3s.28.54.28,1.03v2.7c0,.48-.09.83-.28,1.03s-.43.31-.73.31-.53-.1-.72-.31-.28-.55-.28-1.03v-.49l-1.22.48Zm-2,.83l-3.96,1.61,3.96,1.62v-3.23Z"/>
    <path d="m1201.13,450.74v8.36h-1.83v-8.36h1.83Z"/>
    <path d="m1193.26,440h7.83c0-.42.09-.74.28-.94s.42-.3.72-.3.53.1.72.31.28.52.28.93h.8c0-.42.09-.74.28-.94s.43-.3.72-.3.53.1.72.31.28.55.28,1.03v2.69c0,.48-.09.83-.28,1.03s-.43.31-.73.31-.53-.1-.72-.31-.28-.55-.28-1.03v-.78h-.8v5.44h-1.67l-8.16-4.79v-2.65Zm7.83,2h-4.92l4.92,2.9v-2.9Z"/>
  </g>
  <g>
    <path d="m1202.67,385.86v4.86l1.22.49v-.49c0-.48.09-.83.28-1.03s.43-.31.73-.31.53.1.72.31.28.55.28,1.03v2.7c0,.48-.09.83-.28,1.03s-.43.31-.73.31-.54-.11-.73-.32-.28-.57-.26-1.06l-7.83-3.14v1.31c0,.48-.09.83-.28,1.03s-.43.31-.73.31-.54-.1-.73-.31-.28-.55-.28-1.03v-4.33s9.84-3.98,9.84-3.98c0-.47.05-.78.16-.93.21-.3.5-.45.85-.45.29,0,.53.1.72.3s.28.54.28,1.03v2.7c0,.48-.09.83-.28,1.03s-.43.31-.73.31-.53-.1-.72-.31-.28-.55-.28-1.03v-.49l-1.22.48Zm-2,.83l-3.96,1.61,3.96,1.62v-3.23Z"/>
    <path d="m1201.13,372.11v8.36h-1.83v-8.36h1.83Z"/>
    <path d="m1199.21,361.44c.4-.59.87-1.04,1.4-1.33s1.12-.44,1.78-.44c.71,0,1.37.19,1.97.58s1.06.95,1.37,1.68.46,1.7.46,2.89c0,1.55-.24,2.71-.72,3.5-.27.44-.6.65-.98.65-.29,0-.53-.1-.73-.29s-.3-.42-.3-.7c0-.19.07-.38.2-.59.2-.29.33-.56.39-.81.09-.39.14-.93.14-1.61,0-1.17-.15-2.01-.45-2.53s-.73-.78-1.28-.78c-.41,0-.81.15-1.19.45s-.68.71-.88,1.22c-.12.29-.2.79-.24,1.48-.02.33-.12.59-.31.77s-.42.27-.69.27-.53-.1-.72-.29-.29-.44-.29-.74c0-.66,0-1.02,0-1.06-.03-.26-.11-.52-.25-.78s-.34-.47-.59-.63-.51-.24-.78-.24c-.42,0-.79.19-1.1.56s-.46.94-.46,1.68c0,.96.28,1.7.84,2.21.16.15.27.27.31.36.07.14.11.29.11.46,0,.27-.1.51-.29.7s-.44.29-.72.29c-.45,0-.89-.3-1.31-.9-.62-.87-.93-1.96-.93-3.27,0-1.24.35-2.23,1.05-2.98s1.55-1.12,2.54-1.12c.51,0,.99.11,1.44.33s.86.55,1.24,1Z"/>
  </g>
  <g>
    <path d="m808.77,842.48c-.83,0-1.32.01-1.78.04.07-.42.1-.95.1-1.75v-6.33c0-.84-.02-1.36-.1-1.93h2.62c-.08.62-.1.96-.1,1.89v5.95h2.9c1.02,0,1.43-.01,1.99-.08v2.3c-.44-.06-1.03-.08-1.99-.08h-3.65Z"/>
    <path d="m817.87,832.5c-.07.49-.1.9-.1,1.77v6.43c0,.83.02,1.27.1,1.78h-2.64c.07-.47.1-.97.1-1.78v-6.43c0-.9-.02-1.25-.1-1.77h2.64Z"/>
    <path d="m825.18,838.84c-.61,0-.82.01-1.19.06v-2.12c.44.06.73.07,1.57.07h.96c.61,0,1.06-.01,1.58-.06-.06.46-.08.85-.08,1.63v1.34c0,.85.01,1.24.08,1.79-.66.42-.98.58-1.52.76-.78.26-1.66.41-2.54.41-1.52,0-2.71-.42-3.56-1.28-.91-.91-1.42-2.34-1.42-3.98,0-3.15,1.91-5.16,4.93-5.16,1.5,0,2.64.47,3.43,1.43.32.37.52.73.71,1.31l-2.45.56c-.13-.43-.28-.66-.54-.86-.31-.25-.71-.37-1.21-.37-1.54,0-2.38,1.12-2.38,3.13,0,1.12.25,1.98.73,2.51.38.42.97.65,1.73.65.63,0,1.15-.13,1.74-.43v-1.37h-.58Z"/>
    <path d="m838.46,832.5c-.07.49-.1.94-.1,1.77v6.43c0,.78.02,1.19.1,1.78h-2.58c.07-.5.1-.95.1-1.78v-2.33h-4.04v2.33c0,.78.02,1.24.1,1.78h-2.58c.07-.49.1-.94.1-1.78v-6.43c0-.83-.02-1.26-.1-1.77h2.58c-.07.56-.1,1.03-.1,1.77v1.99h4.04v-1.99c0-.83-.02-1.31-.1-1.77h2.58Z"/>
    <path d="m845.09,840.67c0,.72.02,1.25.1,1.81h-2.65c.07-.56.1-1.06.1-1.81v-6.04h-1.42c-.76,0-.96.01-1.81.08v-2.29c.4.05,1.06.08,1.79.08h5.25c.84,0,1.32-.02,1.87-.08v2.29c-.54-.06-1.01-.08-1.87-.08h-1.35v6.04Z"/>
    <path d="m855.64,835.98c-.23-1.09-.86-1.63-1.9-1.63-1.46,0-2.31,1.15-2.31,3.13s.89,3.14,2.38,3.14c.66,0,1.22-.28,1.57-.76.2-.29.29-.53.36-1.03l2.49.37c-.23,1.02-.49,1.61-1,2.19-.74.85-1.91,1.31-3.36,1.31s-2.7-.46-3.55-1.32c-.89-.9-1.39-2.3-1.39-3.91s.5-3.01,1.45-3.95c.83-.8,2.04-1.25,3.44-1.25,1.55,0,2.76.53,3.54,1.57.38.49.59.93.74,1.64l-2.47.48Z"/>
    <path d="m866.18,842.48c-.1-.58-.17-.89-.29-1.3l-.32-1.02h-3.42l-.32,1.02c-.16.48-.24.85-.3,1.3h-2.81c.18-.36.29-.65.58-1.46l2.59-7.22c.22-.59.32-.95.38-1.29h3.13c.08.35.17.66.41,1.29l2.6,7.22c.23.64.42,1.13.58,1.46h-2.81Zm-2.34-7.93l-1.12,3.6h2.25l-1.14-3.6Z"/>
    <path d="m872.3,840.4c0,1.13.01,1.56.1,2.09h-2.58c.08-.53.11-1.01.11-2.05v-6.21c0-.79-.02-1.19-.1-1.75.49.02.83.04,1.75.04h3.47c1.06,0,1.45-.01,2.01-.08v2.28c-.53-.06-1-.08-2-.08h-2.76v1.97h2.25c.93,0,1.39-.02,1.92-.08v2.22c-.53-.06-1.01-.08-1.92-.08h-2.25v1.76Z"/>
    <path d="m885.59,842.57c-.52-.06-.95-.08-1.98-.08h-3.78c-.91,0-1.25.01-1.76.04.07-.48.1-.92.1-1.75v-6.55c0-.74-.02-1.16-.1-1.75.49.02.83.04,1.76.04h3.83c.82,0,1.22-.02,1.79-.08v2.24c-.55-.06-.98-.08-1.79-.08h-3.12v1.76h2.59c.79,0,1.08-.01,1.8-.08v2.22c-.56-.06-.97-.08-1.8-.08h-2.59v2.01h3.09c.91,0,1.44-.02,1.96-.08v2.24Z"/>
    <path d="m892.59,842.48c-.83,0-1.32.01-1.78.04.07-.42.1-.95.1-1.75v-6.33c0-.84-.02-1.36-.1-1.93h2.62c-.08.62-.1.96-.1,1.89v5.95h2.9c1.02,0,1.43-.01,1.99-.08v2.3c-.44-.06-1.03-.08-1.99-.08h-3.65Z"/>
    <path d="m905.85,842.48c-.1-.58-.17-.89-.29-1.3l-.32-1.02h-3.42l-.32,1.02c-.16.48-.24.85-.3,1.3h-2.81c.18-.36.29-.65.58-1.46l2.59-7.22c.22-.59.32-.95.38-1.29h3.13c.08.35.17.66.41,1.29l2.6,7.22c.23.64.42,1.13.58,1.46h-2.81Zm-2.34-7.93l-1.12,3.6h2.25l-1.14-3.6Z"/>
    <path d="m911.27,842.48c-.91,0-1.26.01-1.78.04.07-.52.1-.92.1-1.76v-6.56c0-.64-.02-1.15-.1-1.73.61.04.78.04,1.76.04h3.14c1.94,0,3.08.94,3.08,2.52,0,.73-.24,1.31-.7,1.71-.26.23-.48.35-.97.53.59.13.9.28,1.25.58.52.46.78,1.1.78,1.89,0,1.73-1.22,2.75-3.31,2.75h-3.26Zm2.78-6.13c.64,0,1.03-.37,1.03-.96s-.37-.92-1.05-.92h-2.09v1.88h2.11Zm-2.11,4.15h2.21c.75,0,1.21-.42,1.21-1.13s-.46-1.1-1.22-1.1h-2.19v2.23Z"/>
    <path d="m933.85,842.48c-.1-.58-.17-.89-.29-1.3l-.32-1.02h-3.42l-.32,1.02c-.16.48-.24.85-.3,1.3h-2.81c.18-.36.29-.65.58-1.46l2.59-7.22c.22-.59.32-.95.38-1.29h3.13c.08.35.17.66.41,1.29l2.6,7.22c.23.64.42,1.13.58,1.46h-2.81Zm-2.34-7.93l-1.12,3.6h2.25l-1.14-3.6Z"/>
    <path d="m945.01,842.57c-.52-.06-.95-.08-1.98-.08h-3.78c-.91,0-1.25.01-1.76.04.07-.48.1-.92.1-1.75v-6.55c0-.74-.02-1.16-.1-1.75.49.02.83.04,1.76.04h3.83c.82,0,1.22-.02,1.79-.08v2.24c-.55-.06-.98-.08-1.79-.08h-3.12v1.76h2.59c.79,0,1.08-.01,1.8-.08v2.22c-.56-.06-.97-.08-1.8-.08h-2.59v2.01h3.09c.91,0,1.44-.02,1.96-.08v2.24Z"/>
    <path d="m952.29,842.48c-.07-.38-.22-.88-.59-1.87-.38-1.04-.53-1.32-.83-1.58-.25-.23-.55-.32-.94-.32h-1.22v1.97c0,.82.02,1.26.1,1.81h-2.58c.07-.55.1-.91.1-1.8v-6.45c0-.74-.02-1.19-.1-1.76.53.02.97.04,1.79.04h3.12c1.94,0,3.07,1.01,3.07,2.73,0,.85-.24,1.52-.71,1.97-.3.28-.55.41-1.14.6.61.19.89.47,1.27,1.32.18.38.35.79.89,2.09.13.34.28.64.58,1.27h-2.81Zm-1.7-5.83c.71,0,1.14-.43,1.14-1.12s-.38-1.02-1.13-1.02h-1.88v2.13h1.87Z"/>
    <path d="m958.74,832.5c-.07.49-.1.9-.1,1.77v6.43c0,.83.02,1.27.1,1.78h-2.64c.07-.47.1-.97.1-1.78v-6.43c0-.9-.02-1.25-.1-1.77h2.64Z"/>
    <path d="m967.03,842.48c-.1-.58-.17-.89-.29-1.3l-.32-1.02h-3.42l-.32,1.02c-.16.48-.24.85-.3,1.3h-2.81c.18-.36.29-.65.58-1.46l2.59-7.22c.22-.59.32-.95.38-1.29h3.13c.08.35.17.66.41,1.29l2.6,7.22c.23.64.42,1.13.58,1.46h-2.81Zm-2.34-7.93l-1.12,3.6h2.25l-1.14-3.6Z"/>
    <path d="m972.44,842.48c-.83,0-1.32.01-1.78.04.07-.42.1-.95.1-1.75v-6.33c0-.84-.02-1.36-.1-1.93h2.62c-.08.62-.1.96-.1,1.89v5.95h2.9c1.02,0,1.43-.01,1.99-.08v2.3c-.44-.06-1.03-.08-1.99-.08h-3.65Z"/>
    <path d="m983,834.23c0-.82-.02-1.21-.11-1.76.48.02.78.04,1.78.04h2.51c1.47,0,2.66.41,3.47,1.19.88.86,1.32,2.12,1.32,3.72s-.48,2.96-1.39,3.87c-.8.79-1.94,1.2-3.37,1.2h-2.53c-.92,0-1.26.01-1.76.04.07-.53.1-.92.1-1.75v-6.54Zm3.98,6.15c.78,0,1.33-.2,1.76-.63.49-.5.75-1.31.75-2.3s-.23-1.76-.7-2.23c-.42-.42-1-.61-1.86-.61h-1.57v5.78h1.61Z"/>
    <path d="m995.8,832.5c-.07.49-.1.9-.1,1.77v6.43c0,.83.02,1.27.1,1.78h-2.64c.07-.47.1-.97.1-1.78v-6.43c0-.9-.02-1.25-.1-1.77h2.64Z"/>
    <path d="m999.49,839.23c.05.43.13.65.31.89.29.36.79.56,1.4.56.92,0,1.48-.41,1.48-1.08,0-.37-.19-.7-.5-.84-.25-.12-.55-.2-1.8-.49-1.1-.24-1.49-.38-1.93-.7-.75-.53-1.16-1.33-1.16-2.3,0-1.85,1.49-3.01,3.85-3.01,1.52,0,2.69.47,3.33,1.37.3.4.44.76.6,1.44l-2.54.28c-.14-.78-.58-1.1-1.49-1.1-.73,0-1.27.4-1.27.95,0,.34.18.59.56.77q.24.11,1.65.4c.91.19,1.49.4,1.94.68.86.54,1.29,1.34,1.29,2.45,0,.9-.29,1.67-.84,2.21-.7.67-1.75,1.02-3.15,1.02-1.02,0-2.03-.22-2.67-.59-.6-.34-1.04-.85-1.29-1.54-.12-.29-.18-.56-.26-1.12l2.5-.24Z"/>
    <path d="m1006.46,842.48c.07-.53.1-1.07.1-1.78v-6.49c0-.65-.02-1.19-.1-1.75.56.02,1,.04,1.76.04h2.63c2.38,0,3.68,1.14,3.68,3.23s-1.37,3.41-3.69,3.41h-1.89v1.54c0,.71.04,1.3.1,1.81h-2.58Zm4.27-5.39c.84,0,1.33-.47,1.33-1.29s-.47-1.26-1.33-1.26h-1.79v2.55h1.79Z"/>
    <path d="m1017.39,842.48c-.83,0-1.32.01-1.78.04.07-.42.1-.95.1-1.75v-6.33c0-.84-.02-1.36-.1-1.93h2.62c-.08.62-.1.96-.1,1.89v5.95h2.9c1.02,0,1.43-.01,1.99-.08v2.3c-.44-.06-1.03-.08-1.99-.08h-3.65Z"/>
    <path d="m1030.65,842.48c-.1-.58-.17-.89-.29-1.3l-.32-1.02h-3.42l-.32,1.02c-.16.48-.24.85-.3,1.3h-2.81c.18-.36.29-.65.58-1.46l2.59-7.22c.22-.59.32-.95.38-1.29h3.13c.08.35.17.66.41,1.29l2.6,7.22c.23.64.42,1.13.58,1.46h-2.81Zm-2.34-7.93l-1.12,3.6h2.25l-1.14-3.6Z"/>
    <path d="m1038.45,840.71c0,.62.02,1.15.1,1.78h-2.61c.06-.55.1-1.1.1-1.78v-2.22l-2.76-4.53c-.22-.37-.48-.77-.96-1.45h3.03c.13.42.26.73.56,1.26l1.33,2.43,1.33-2.42c.3-.55.47-.92.55-1.27h3.03c-.35.5-.8,1.19-.96,1.45l-2.75,4.53v2.22Z"/>
    <path d="m1047.09,834.23c0-.82-.02-1.21-.11-1.76.48.02.78.04,1.78.04h2.51c1.47,0,2.66.41,3.47,1.19.88.86,1.32,2.12,1.32,3.72s-.48,2.96-1.39,3.87c-.8.79-1.94,1.2-3.37,1.2h-2.53c-.92,0-1.26.01-1.76.04.07-.53.1-.92.1-1.75v-6.54Zm3.98,6.15c.78,0,1.33-.2,1.76-.63.49-.5.75-1.31.75-2.3s-.23-1.76-.7-2.23c-.42-.42-1-.61-1.86-.61h-1.57v5.78h1.61Z"/>
    <path d="m1064.78,842.57c-.52-.06-.95-.08-1.98-.08h-3.78c-.91,0-1.25.01-1.76.04.07-.48.1-.92.1-1.75v-6.55c0-.74-.02-1.16-.1-1.75.49.02.83.04,1.76.04h3.83c.82,0,1.22-.02,1.79-.08v2.24c-.55-.06-.98-.08-1.79-.08h-3.12v1.76h2.59c.79,0,1.08-.01,1.8-.08v2.22c-.56-.06-.97-.08-1.8-.08h-2.59v2.01h3.09c.91,0,1.44-.02,1.96-.08v2.24Z"/>
    <path d="m1070.18,839.57q.1.32.23.83c.14-.53.17-.6.23-.83l1.74-5.77c.16-.55.24-.89.28-1.29h2.82c-.17.36-.28.64-.58,1.46l-2.54,7.22c-.2.59-.32,1-.38,1.3h-3.12c-.06-.31-.18-.72-.38-1.3l-2.55-7.22c-.24-.7-.36-1-.56-1.46h2.81c.05.38.16.85.29,1.29l1.74,5.77Z"/>
    <path d="m1088.49,840.71c.71,1.06.86,1.27,1.27,1.78h-3.12c-.17-.38-.52-1.02-.83-1.52l-1.86-2.97-1.21,1.21v1.51c0,.74.02,1.14.1,1.78h-2.54c.07-.61.1-1.06.1-1.78v-6.43c0-.73-.02-1.2-.1-1.77h2.54c-.07.62-.1,1.02-.1,1.77v2.12l2.39-2.55c.47-.49.78-.9,1.04-1.34h3.24c-.22.22-.3.31-.47.48q-.62.62-.84.84l-2.51,2.63,2.89,4.26Z"/>
    <path d="m1093.25,832.5c-.07.49-.1.9-.1,1.77v6.43c0,.83.02,1.27.1,1.78h-2.64c.07-.47.1-.97.1-1.78v-6.43c0-.9-.02-1.25-.1-1.77h2.64Z"/>
    <path d="m1099.87,840.67c0,.72.02,1.25.1,1.81h-2.65c.07-.56.1-1.06.1-1.81v-6.04h-1.42c-.76,0-.96.01-1.81.08v-2.29c.4.05,1.06.08,1.79.08h5.25c.84,0,1.32-.02,1.87-.08v2.29c-.54-.06-1.01-.08-1.87-.08h-1.35v6.04Z"/>
    <path d="m1108.86,834.92c0-.6-.02-1.08-.1-1.64h2.45c-.06.49-.1,1.07-.1,1.64v.25h.43c.53,0,.8-.01,1.18-.06v1.99c-.36-.05-.67-.07-1.1-.07h-.5v3.07c0,.34.06.5.22.61.13.08.32.13.55.13.31,0,.54-.06.84-.22l.18,1.82c-.54.17-1.01.24-1.66.24-.82,0-1.38-.13-1.76-.42-.46-.35-.62-.76-.62-1.57v-3.67h-.46c-.38,0-.7.02-1.04.07v-2c.35.05.65.07,1.07.07h.43v-.25Z"/>
    <path d="m1113.82,836.77c-.52-1.2-.56-1.31-.72-1.61h2.6c.06.38.22.9.47,1.55l1.1,2.77,1.07-2.72c.34-.83.44-1.18.52-1.6h2.6q-.3.62-.72,1.61l-2.75,6.34c-.48,1.13-1.34,1.64-2.71,1.64-.53,0-.98-.06-1.64-.2l.26-1.91c.4.2.62.26.94.26.46,0,.79-.2.97-.56l.25-.52-2.24-5.06Z"/>
    <path d="m1122.18,844.65c.06-.52.1-1.12.1-1.75v-5.85c0-.78-.02-1.27-.1-1.88h2.36v.41c0,.07-.01.17-.01.23.72-.6,1.46-.85,2.46-.85,1.05,0,1.92.31,2.54.92.64.64.96,1.58.96,2.79s-.36,2.22-1.04,2.9c-.61.61-1.49.95-2.47.95-.56,0-1.17-.12-1.62-.31-.31-.13-.49-.26-.83-.55,0,.11,0,.26.01.43v.83c0,.67.02,1.22.1,1.74h-2.46Zm5.45-4.4c.33-.32.53-.88.53-1.56,0-1.22-.65-1.93-1.78-1.93-1,0-1.81.88-1.81,1.97s.8,1.98,1.88,1.98c.46,0,.86-.16,1.18-.46Z"/>
    <path d="m1133.35,839.5c.12.97.68,1.49,1.63,1.49.48,0,.9-.16,1.21-.44.18-.17.26-.3.36-.61l2.09.59c-.28.62-.46.9-.79,1.24-.68.67-1.64,1.02-2.83,1.02s-2.1-.33-2.78-1.02c-.71-.72-1.09-1.74-1.09-2.93,0-2.38,1.52-3.95,3.81-3.95,1.87,0,3.18,1.02,3.6,2.81.1.38.14.89.18,1.57,0,.05,0,.12.01.24h-5.4Zm3.12-1.66c-.17-.77-.68-1.18-1.51-1.18s-1.37.38-1.57,1.18h3.08Z"/>
    <path d="m1139.56,837.54c.37.06.71.08,1.16.08h2.37c.46,0,.79-.02,1.16-.08v2.28c-.4-.06-.72-.08-1.16-.08h-2.37c-.44,0-.77.02-1.16.08v-2.28Z"/>
    <path d="m1152.3,842.48c-.1-.58-.17-.89-.29-1.3l-.32-1.02h-3.42l-.32,1.02c-.16.48-.24.85-.3,1.3h-2.81c.18-.36.29-.65.58-1.46l2.59-7.22c.22-.59.32-.95.38-1.29h3.13c.08.35.17.66.41,1.29l2.6,7.22c.23.64.42,1.13.58,1.46h-2.81Zm-2.34-7.93l-1.12,3.6h2.25l-1.14-3.6Z"/>
    <path d="m1161.94,835.17c.02.29.08.54.23,1.03l1.12,3.73s.02.07.05.13c.04.12.04.13.1.34.04-.11.05-.17.06-.22.01-.02.02-.06.04-.12.02-.06.04-.11.05-.14l1.12-3.72c.13-.44.2-.77.23-1.03h2.66c-.24.54-.34.77-.49,1.16l-2.01,5.15c-.2.52-.26.71-.32,1.01h-2.63c-.06-.3-.12-.49-.32-1.01l-2.01-5.15c-.07-.17-.24-.55-.5-1.16h2.66Z"/>
    <path d="m1170.19,839.5c.12.97.68,1.49,1.63,1.49.48,0,.9-.16,1.21-.44.18-.17.26-.3.36-.61l2.09.59c-.28.62-.46.9-.79,1.24-.68.67-1.64,1.02-2.83,1.02s-2.1-.33-2.78-1.02c-.71-.72-1.09-1.74-1.09-2.93,0-2.38,1.52-3.95,3.81-3.95,1.87,0,3.18,1.02,3.6,2.81.1.38.14.89.18,1.57,0,.05,0,.12.01.24h-5.4Zm3.12-1.66c-.17-.77-.68-1.18-1.51-1.18s-1.37.38-1.57,1.18h3.08Z"/>
    <path d="m1181.94,837.33c-.55-.17-.85-.23-1.22-.23-.61,0-1.08.22-1.43.65-.23.29-.31.54-.36,1.07v1.87c0,.77.02,1.22.1,1.8h-2.48c.07-.6.1-1.03.1-1.81v-3.69c0-.88-.02-1.3-.1-1.81h2.39v.95c.59-.77,1.31-1.09,2.4-1.09.38,0,.62.02,1.19.14l-.58,2.16Z"/>
    <path d="m1184.32,832.42c.43.07.74.08,1.44.08h1.52c.85,0,1.01,0,1.49-.05-.06.64-.08,1.14-.08,1.93v6.28c0,.72.02,1.22.1,1.81h-2.61c.07-.55.1-1.12.1-1.81v-6.12h-.48c-.47,0-.94.02-1.46.08v-2.22Z"/>
    <path d="m1194.92,840.06v2.42h-2.42v-2.42h2.42Z"/>
    <path d="m1197.25,841.58c-.4-.4-.7-.85-.88-1.33-.31-.85-.47-1.77-.47-2.75,0-1.26.3-2.57.76-3.32.73-1.22,1.98-1.89,3.49-1.89,1.16,0,2.18.4,2.91,1.12.4.4.7.85.88,1.33.31.85.47,1.78.47,2.76,0,1.26-.3,2.58-.75,3.33-.72,1.2-1.98,1.87-3.5,1.87-1.18,0-2.17-.38-2.9-1.12Zm1.12-4.17c0,2.15.61,3.25,1.8,3.25s1.77-1.08,1.77-3.21-.62-3.13-1.79-3.13-1.79,1.14-1.79,3.09Z"/>
  </g>
</svg>