<?xml version="1.0" encoding="UTF-8"?>
<svg id="_0" data-name="0" xmlns="http://www.w3.org/2000/svg" viewBox="0 0 1170.32 717.8">
  <defs>
    <style>
      .cls-1 {
        stroke: red;
      }

      .cls-1, .cls-2 {
        fill: none;
        stroke-linecap: round;
        stroke-linejoin: round;
        stroke-width: .71px;
      }

      .cls-2 {
        stroke: #000;
      }
    </style>
  </defs>
  <g id="LWPOLYLINE">
    <polyline class="cls-1" points="68.39 37.11 612.64 37.11 612.64 596.81 680.67 596.81"/>
    <polyline class="cls-1" points="680.67 .35 .35 .35 .35 596.81 68.39 596.81"/>
  </g>
  <g id="LWPOLYLINE-2" data-name="LWPOLYLINE">
    <rect class="cls-1" x="1155.8" y="169.38" width="7.09" height="113.39"/>
  </g>
  <g id="LWPOLYLINE-3" data-name="LWPOLYLINE">
    <rect class="cls-1" x="1155.8" y="463.39" width="7.09" height="113.39"/>
  </g>
  <g id="LWPOLYLINE-4" data-name="LWPOLYLINE">
    <rect class="cls-1" x="496.74" y="463.39" width="7.09" height="113.39"/>
  </g>
  <g id="LWPOLYLINE-5" data-name="LWPOLYLINE">
    <rect class="cls-1" x="496.74" y="169.38" width="7.09" height="113.39"/>
  </g>
  <g id="LWPOLYLINE-6" data-name="LWPOLYLINE">
    <polygon class="cls-1" points="489.65 79.06 489.65 675.51 631.39 675.51 631.39 663.98 688.08 663.98 688.08 675.51 971.54 675.51 971.54 663.98 1028.24 663.98 1028.24 675.51 1169.97 675.51 1169.97 79.06 1113.28 79.06 1113.28 652.92 546.35 652.92 546.35 79.06 489.65 79.06"/>
  </g>
  <g id="LWPOLYLINE-7" data-name="LWPOLYLINE">
    <polyline class="cls-1" points="68.39 37.13 68.39 717.44 215.86 717.44 215.86 37.13"/>
  </g>
  <rect class="cls-2" x="13.11" y="656.53" width="43.3" height="43.3"/>
  <path d="m26.04,687.51v-17.62h-.7c-1.08,0-1.86-.21-2.32-.63-.46-.42-.69-.96-.69-1.64s.23-1.22.69-1.64c.46-.42,1.23-.63,2.32-.63h11.29c2.7,0,4.86.75,6.5,2.25,1.64,1.5,2.46,3.29,2.46,5.35,0,.98-.19,1.91-.57,2.77s-.96,1.66-1.74,2.39c1.42.85,2.49,1.84,3.2,2.98.71,1.13,1.07,2.42,1.07,3.86,0,1.14-.26,2.2-.77,3.19-.38.75-.85,1.34-1.41,1.78-.75.62-1.66,1.12-2.75,1.51-1.08.39-2.44.58-4.06.58h-13.23c-1.08,0-1.86-.21-2.32-.63-.46-.42-.69-.96-.69-1.64s.23-1.2.7-1.61c.47-.42,1.24-.63,2.31-.63h.7Zm4.5-11.07h4.94c1.77,0,3.24-.45,4.42-1.34.79-.6,1.19-1.35,1.19-2.24,0-.79-.37-1.48-1.12-2.08-.75-.59-1.93-.89-3.56-.89h-5.87v6.55Zm0,11.07h7.78c1.83,0,3.12-.27,3.87-.81.57-.41.86-1,.86-1.76,0-.91-.56-1.8-1.69-2.68s-2.75-1.32-4.86-1.32h-5.95v6.57Z"/>
  <g id="CIRCLE">
    <circle class="cls-1" cx="893.43" cy="326.34" r="28.35"/>
  </g>
  <g id="LWPOLYLINE-8" data-name="LWPOLYLINE">
    <polyline class="cls-1" points="1113.28 106.94 1106.19 106.94 1106.19 .35 680.67 .35 680.67 652.32"/>
    <polyline class="cls-1" points="1113.28 432.92 1106.19 432.92 1106.19 219.76 1113.28 219.76"/>
    <polyline class="cls-1" points="1106.19 652.32 1106.19 545.74 1113.28 545.74"/>
  </g>
  <g id="LWPOLYLINE-9" data-name="LWPOLYLINE">
    <polyline class="cls-1" points="329.24 642.68 340.58 642.68 340.58 665.23 329.24 665.23"/>
    <polyline class="cls-1" points="365.17 37.13 365.17 44.21 329.24 44.21"/>
    <polyline class="cls-1" points="329.24 696.18 365.17 696.18 365.17 703.27 437.88 703.27 437.88 696.18 473.81 696.18 473.81 590.1 480.9 590.1 480.9 476.29 473.81 476.29 473.81 264.11 480.9 264.11 480.9 150.3 473.81 150.3 473.81 44.21 437.88 44.21 437.88 37.13"/>
  </g>
  <g id="LWPOLYLINE-10" data-name="LWPOLYLINE">
    <polyline class="cls-1" points="215.2 642.68 264.84 642.68 264.84 665.23 215.2 665.23"/>
    <polyline class="cls-1" points="243.34 37.13 243.34 44.21 215.2 44.21"/>
    <polyline class="cls-1" points="215.2 696.18 243.33 696.18 243.33 703.27 300.45 703.27 300.45 696.18 328.59 696.18 328.59 44.21 300.45 44.21 300.45 37.13"/>
  </g>
  <g id="LWPOLYLINE-11" data-name="LWPOLYLINE">
    <rect class="cls-2" x="314.41" y="99.49" width="14.17" height="541.42"/>
  </g>
  <g>
    <path d="m207.03,73.81h-5.87v.23c0,.36-.07.62-.21.77-.14.15-.32.23-.55.23s-.41-.08-.55-.23c-.14-.15-.21-.41-.21-.77v-3.76c0-.9.25-1.62.75-2.17.5-.55,1.09-.82,1.78-.82.33,0,.63.06.92.19.29.13.55.32.8.58.28-.47.61-.83.99-1.07.38-.24.81-.35,1.29-.35.38,0,.74.09,1.06.26.25.13.45.28.59.47.21.25.37.55.5.92.13.36.19.81.19,1.35v4.41c0,.36-.07.62-.21.77-.14.15-.32.23-.54.23s-.4-.08-.54-.23c-.14-.16-.21-.41-.21-.77v-.23Zm-3.69-1.5v-1.65c0-.59-.15-1.08-.45-1.47-.2-.26-.45-.4-.75-.4-.26,0-.49.12-.69.37-.2.25-.3.64-.3,1.19v1.96h2.18Zm3.69,0v-2.59c0-.61-.09-1.04-.27-1.29-.14-.19-.33-.29-.59-.29-.3,0-.6.19-.89.56s-.44.92-.44,1.62v1.98h2.19Z"/>
    <path d="m204.95,58.6v6.27h-1.37v-6.27h1.37Z"/>
    <path d="m207.03,54.15v-3.29c-.15-.18-.22-.35-.22-.51,0-.23.08-.41.23-.55.15-.13.41-.2.78-.2h.72v6.84h-1.59c-2.23-2.71-3.67-4.34-4.31-4.9-.33-.28-.64-.42-.93-.42-.37,0-.69.16-.97.48-.28.32-.42.75-.42,1.28s.16.98.47,1.34c.17.19.41.33.74.45.21.07.35.16.44.28.09.12.13.27.13.44,0,.21-.07.38-.22.53s-.32.22-.51.22c-.29,0-.66-.14-1.1-.41-.44-.27-.79-.67-1.05-1.19-.26-.52-.39-1.08-.39-1.7,0-.95.29-1.72.86-2.33.57-.61,1.27-.91,2.08-.91.42,0,.8.09,1.15.26.35.17.84.59,1.47,1.25.49.52,1.38,1.53,2.65,3.02Z"/>
  </g>
  <g>
    <path d="m231.57,73.27h-5.87v.23c0,.36-.07.62-.21.77-.14.15-.32.23-.55.23s-.41-.08-.55-.23c-.14-.15-.21-.41-.21-.77v-3.76c0-.9.25-1.62.75-2.17.5-.55,1.09-.82,1.78-.82.33,0,.63.06.92.19.29.13.55.32.8.58.28-.47.61-.83.99-1.07.38-.24.81-.35,1.29-.35.38,0,.74.09,1.06.26.25.13.45.28.59.47.21.25.37.55.5.92.13.36.19.81.19,1.35v4.41c0,.36-.07.62-.21.77-.14.15-.32.23-.54.23s-.4-.08-.54-.23c-.14-.16-.21-.41-.21-.77v-.23Zm-3.69-1.5v-1.65c0-.59-.15-1.08-.45-1.47-.2-.26-.45-.4-.75-.4-.26,0-.49.12-.69.37-.2.25-.3.64-.3,1.19v1.96h2.18Zm3.69,0v-2.59c0-.61-.09-1.04-.27-1.29-.14-.19-.33-.29-.59-.29-.3,0-.6.19-.89.56s-.44.92-.44,1.62v1.98h2.19Z"/>
    <path d="m229.49,58.06v6.27h-1.37v-6.27h1.37Z"/>
    <path d="m228.05,50.06c.3-.44.65-.78,1.05-1,.4-.22.84-.33,1.34-.33.53,0,1.02.15,1.48.44.45.29.79.71,1.03,1.26.23.55.35,1.27.35,2.17,0,1.16-.18,2.04-.54,2.62-.21.33-.45.49-.73.49-.21,0-.4-.07-.55-.22-.15-.14-.22-.32-.22-.52,0-.14.05-.29.15-.44.15-.21.25-.42.29-.61.07-.29.1-.7.1-1.21,0-.87-.11-1.51-.34-1.9-.23-.39-.55-.59-.96-.59-.31,0-.6.11-.89.34-.29.23-.51.53-.66.91-.09.22-.15.59-.18,1.11-.01.25-.09.44-.23.58-.14.13-.31.2-.52.2s-.4-.07-.54-.22-.22-.33-.22-.56c0-.5,0-.76,0-.8-.02-.2-.08-.39-.19-.59s-.26-.35-.44-.47c-.19-.12-.38-.18-.58-.18-.32,0-.59.14-.82.42-.23.28-.35.7-.35,1.26,0,.72.21,1.27.63,1.66.12.11.2.2.23.27.05.1.08.22.08.34,0,.21-.07.38-.22.53s-.33.22-.54.22c-.34,0-.66-.22-.98-.67-.46-.65-.7-1.47-.7-2.45,0-.93.26-1.67.79-2.23s1.16-.84,1.9-.84c.39,0,.75.08,1.08.25.33.17.64.42.93.75Z"/>
  </g>
  <g>
    <path d="m345.71,73.63h-5.87v.23c0,.36-.07.62-.21.77-.14.15-.32.23-.55.23s-.41-.08-.55-.23c-.14-.15-.21-.41-.21-.77v-3.76c0-.9.25-1.62.75-2.17.5-.55,1.09-.82,1.78-.82.33,0,.63.06.92.19.29.13.55.32.8.58.28-.47.61-.83.99-1.07.38-.24.81-.35,1.29-.35.38,0,.74.09,1.06.26.25.13.45.28.59.47.21.25.37.55.5.92.13.36.19.81.19,1.35v4.41c0,.36-.07.62-.21.77-.14.15-.32.23-.54.23s-.4-.08-.54-.23c-.14-.16-.21-.41-.21-.77v-.23Zm-3.69-1.5v-1.65c0-.59-.15-1.08-.45-1.47-.2-.26-.45-.4-.75-.4-.26,0-.49.12-.69.37-.2.25-.3.64-.3,1.19v1.96h2.18Zm3.69,0v-2.59c0-.61-.09-1.04-.27-1.29-.14-.19-.33-.29-.59-.29-.3,0-.6.19-.89.56s-.44.92-.44,1.62v1.98h2.19Z"/>
    <path d="m343.64,58.42v6.27h-1.37v-6.27h1.37Z"/>
    <path d="m337.73,50.36h5.87c0-.32.07-.55.21-.7.14-.15.32-.23.54-.23s.4.08.54.23c.14.15.21.39.21.7h.6c0-.32.07-.55.21-.7s.32-.23.54-.23.4.08.54.23c.14.15.21.41.21.77v2.01c0,.36-.07.62-.21.77-.14.15-.32.23-.54.23s-.4-.08-.54-.23c-.14-.15-.21-.41-.21-.77v-.59h-.6v4.08h-1.25l-6.12-3.6v-1.98Zm5.87,1.5h-3.69l3.69,2.18v-2.18Z"/>
  </g>
  <g>
    <path d="m42.55,604.17v5.87h.23c.36,0,.62.07.77.21.15.14.23.32.23.55s-.08.41-.23.55c-.15.14-.41.21-.77.21h-3.76c-.9,0-1.62-.25-2.17-.75-.55-.5-.82-1.09-.82-1.78,0-.33.06-.63.19-.92.13-.29.32-.55.58-.8-.47-.28-.83-.61-1.07-.99-.24-.38-.35-.81-.35-1.29,0-.38.09-.74.26-1.06.13-.25.28-.45.47-.59.25-.21.55-.37.92-.5.36-.13.81-.19,1.35-.19h4.41c.36,0,.62.07.77.21.15.14.23.32.23.54s-.08.4-.23.54c-.16.14-.41.21-.77.21h-.23Zm-1.5,0h-2.59c-.61,0-1.04.09-1.29.27-.19.14-.29.33-.29.59,0,.3.19.6.56.89s.92.44,1.62.44h1.98v-2.19Zm0,3.69h-1.65c-.59,0-1.08.15-1.47.45-.26.2-.4.45-.4.75,0,.26.12.49.37.69.25.2.64.3,1.19.3h1.96v-2.18Z"/>
    <path d="m27.34,606.24h6.27v1.37h-6.27v-1.37Z"/>
    <path d="m20.72,612.38v-8.22h-1.52c-.36,0-.62-.07-.77-.21-.15-.14-.23-.32-.23-.55s.08-.4.23-.54c.15-.14.41-.21.77-.21h4.53c.36,0,.62.07.77.21.15.14.23.32.23.54s-.08.4-.23.54c-.15.14-.41.21-.77.21h-1.52v6.26l1.34-.35c.21-.06.38-.09.48-.09.19,0,.35.08.49.23.14.15.21.34.21.56,0,.2-.05.36-.15.47-.1.12-.32.22-.64.3l-3.23.83Z"/>
  </g>
  <g>
    <path d="m1129.6,93.8v-5.87h-.23c-.36,0-.62-.07-.77-.21-.15-.14-.23-.32-.23-.55s.08-.41.23-.55c.15-.14.41-.21.77-.21h3.76c.9,0,1.62.25,2.17.75.55.5.82,1.09.82,1.78,0,.33-.06.63-.19.92-.13.29-.32.55-.58.8.47.28.83.61,1.07.99.24.38.36.81.36,1.29,0,.38-.09.74-.26,1.06-.13.25-.28.45-.47.59-.25.21-.55.37-.92.5-.36.13-.81.19-1.36.19h-4.41c-.36,0-.62-.07-.77-.21-.15-.14-.23-.32-.23-.54s.08-.4.23-.54c.16-.14.41-.21.77-.21h.23Zm1.5-3.69h1.65c.59,0,1.08-.15,1.47-.45.26-.2.4-.45.4-.75,0-.26-.12-.49-.37-.69-.25-.2-.64-.3-1.19-.3h-1.96v2.18Zm0,3.69h2.59c.61,0,1.04-.09,1.29-.27.19-.14.29-.33.29-.59,0-.3-.19-.6-.56-.89s-.92-.44-1.62-.44h-1.98v2.19Z"/>
    <path d="m1144.82,91.73h-6.27v-1.37h6.27v1.37Z"/>
    <path d="m1149.26,90.18c.36-.3.71-.52,1.03-.66.33-.14.68-.21,1.05-.21.79,0,1.47.31,2.07.94s.89,1.41.89,2.35c0,.87-.28,1.58-.82,2.12-.55.54-1.29.81-2.24.81-.79,0-1.43-.18-1.94-.55-.51-.37-.89-.93-1.15-1.69s-.39-1.61-.39-2.55c0-1.12.26-2.06.77-2.8.51-.74,1.12-1.32,1.81-1.73s1.43-.62,2.2-.62c.61,0,1.08.12,1.42.36.22.16.33.37.33.62,0,.22-.07.4-.22.55-.15.15-.32.22-.53.22-.12,0-.29-.06-.51-.18-.13-.07-.26-.1-.38-.1-.48,0-.97.14-1.49.41-.51.27-.96.69-1.33,1.25-.26.39-.45.88-.56,1.46Zm.22,2.32c.16.59.37.99.63,1.2.27.21.65.32,1.14.32s.87-.13,1.14-.39c.27-.26.4-.61.4-1.05,0-.51-.15-.93-.46-1.27-.3-.34-.65-.5-1.03-.5-.3,0-.63.15-.97.45-.34.3-.63.71-.85,1.25Z"/>
  </g>
  <g>
    <path d="m696.44,35.68h-5.87v.23c0,.36-.07.62-.21.77-.14.15-.32.23-.55.23s-.41-.08-.55-.23c-.14-.15-.21-.41-.21-.77v-3.76c0-.9.25-1.62.75-2.17.5-.55,1.09-.82,1.78-.82.33,0,.63.06.92.19.29.13.55.32.8.58.28-.47.61-.83.99-1.07.38-.24.81-.35,1.29-.35.38,0,.74.09,1.06.26.25.13.45.28.59.47.21.25.37.55.5.92.13.36.19.81.19,1.35v4.41c0,.36-.07.62-.21.77-.14.15-.32.23-.54.23s-.4-.08-.54-.23c-.14-.16-.21-.41-.21-.77v-.23Zm-3.69-1.5v-1.65c0-.59-.15-1.08-.45-1.47-.2-.26-.45-.4-.75-.4-.26,0-.49.12-.69.37-.2.25-.3.64-.3,1.19v1.96h2.18Zm3.69,0v-2.59c0-.61-.09-1.04-.27-1.29-.14-.19-.33-.29-.59-.29-.3,0-.6.19-.89.56s-.44.92-.44,1.62v1.98h2.19Z"/>
    <path d="m694.36,20.47v6.27h-1.37v-6.27h1.37Z"/>
    <path d="m689.96,15.87h1.79c-.18-.56-.26-1.06-.26-1.52,0-.92.32-1.69.95-2.3s1.44-.92,2.44-.92,1.83.31,2.41.93c.58.62.88,1.56.88,2.84,0,1.12-.21,2.01-.64,2.67-.24.38-.52.57-.84.57-.2,0-.38-.07-.52-.22-.15-.15-.22-.33-.22-.53,0-.17.08-.36.25-.56.16-.2.28-.41.34-.63.09-.31.14-.71.14-1.2,0-.91-.15-1.53-.44-1.86-.29-.33-.74-.5-1.34-.5s-1.05.16-1.39.48c-.34.32-.51.73-.51,1.23,0,.54.18,1.16.53,1.85.08.16.12.29.12.41,0,.21-.08.39-.23.54-.16.14-.36.22-.61.22h-4.34v-4.59c0-.36.07-.62.21-.77.14-.15.32-.23.55-.23s.4.08.54.23c.14.15.21.41.21.77v3.09Z"/>
  </g>
  <g>
    <path d="m755.51,703.8c-.83,0-1.32.01-1.78.04.07-.42.1-.95.1-1.75v-6.33c0-.84-.02-1.36-.1-1.93h2.62c-.08.62-.1.96-.1,1.89v5.95h2.9c1.02,0,1.43-.01,1.99-.08v2.3c-.44-.06-1.03-.08-1.99-.08h-3.65Z"/>
    <path d="m764.61,693.82c-.07.49-.1.9-.1,1.77v6.43c0,.83.02,1.27.1,1.78h-2.64c.07-.47.1-.97.1-1.78v-6.43c0-.9-.02-1.25-.1-1.77h2.64Z"/>
    <path d="m771.91,700.15c-.61,0-.82.01-1.19.06v-2.12c.44.06.73.07,1.57.07h.96c.61,0,1.06-.01,1.58-.06-.06.46-.08.85-.08,1.63v1.34c0,.85.01,1.24.08,1.79-.66.42-.98.58-1.52.76-.78.26-1.66.41-2.54.41-1.52,0-2.71-.42-3.56-1.28-.91-.91-1.42-2.34-1.42-3.98,0-3.15,1.91-5.16,4.93-5.16,1.5,0,2.64.47,3.43,1.43.32.37.52.73.71,1.31l-2.45.56c-.13-.43-.28-.66-.54-.86-.31-.25-.71-.37-1.21-.37-1.54,0-2.38,1.12-2.38,3.13,0,1.12.25,1.98.73,2.51.38.42.97.65,1.73.65.63,0,1.15-.13,1.74-.43v-1.37h-.58Z"/>
    <path d="m785.2,693.82c-.07.49-.1.94-.1,1.77v6.43c0,.78.02,1.19.1,1.78h-2.58c.07-.5.1-.95.1-1.78v-2.33h-4.04v2.33c0,.78.02,1.24.1,1.78h-2.58c.07-.49.1-.94.1-1.78v-6.43c0-.83-.02-1.26-.1-1.77h2.58c-.07.56-.1,1.03-.1,1.77v1.99h4.04v-1.99c0-.83-.02-1.31-.1-1.77h2.58Z"/>
    <path d="m791.82,701.99c0,.72.02,1.25.1,1.81h-2.65c.07-.56.1-1.06.1-1.81v-6.04h-1.42c-.76,0-.96.01-1.81.08v-2.29c.4.05,1.06.08,1.79.08h5.25c.84,0,1.32-.02,1.87-.08v2.29c-.54-.06-1.01-.08-1.87-.08h-1.35v6.04Z"/>
    <path d="m802.38,697.3c-.23-1.09-.86-1.63-1.9-1.63-1.46,0-2.31,1.15-2.31,3.13s.89,3.14,2.38,3.14c.66,0,1.22-.28,1.57-.76.2-.29.29-.53.36-1.03l2.49.37c-.23,1.02-.49,1.61-1,2.19-.74.85-1.91,1.31-3.36,1.31s-2.7-.46-3.55-1.32c-.89-.9-1.39-2.3-1.39-3.91s.5-3.01,1.45-3.95c.83-.8,2.04-1.25,3.44-1.25,1.55,0,2.76.53,3.54,1.57.38.49.59.93.74,1.64l-2.47.48Z"/>
    <path d="m812.92,703.8c-.1-.58-.17-.89-.29-1.3l-.32-1.02h-3.42l-.32,1.02c-.16.48-.24.85-.3,1.3h-2.81c.18-.36.29-.65.58-1.46l2.59-7.22c.22-.59.32-.95.38-1.29h3.13c.08.35.17.66.41,1.29l2.6,7.22c.23.64.42,1.13.58,1.46h-2.81Zm-2.34-7.93l-1.12,3.6h2.25l-1.14-3.6Z"/>
    <path d="m819.04,701.71c0,1.13.01,1.56.1,2.09h-2.58c.08-.53.11-1.01.11-2.05v-6.21c0-.79-.02-1.19-.1-1.75.49.02.83.04,1.75.04h3.47c1.06,0,1.45-.01,2.01-.08v2.28c-.53-.06-1-.08-2-.08h-2.76v1.97h2.25c.93,0,1.39-.02,1.92-.08v2.22c-.53-.06-1.01-.08-1.92-.08h-2.25v1.76Z"/>
    <path d="m832.33,703.89c-.52-.06-.95-.08-1.98-.08h-3.78c-.91,0-1.25.01-1.76.04.07-.48.1-.92.1-1.75v-6.55c0-.74-.02-1.16-.1-1.75.49.02.83.04,1.76.04h3.83c.82,0,1.22-.02,1.79-.08v2.24c-.55-.06-.98-.08-1.79-.08h-3.12v1.76h2.59c.79,0,1.08-.01,1.8-.08v2.22c-.56-.06-.97-.08-1.8-.08h-2.59v2.01h3.09c.91,0,1.44-.02,1.96-.08v2.24Z"/>
    <path d="m839.33,703.8c-.83,0-1.32.01-1.78.04.07-.42.1-.95.1-1.75v-6.33c0-.84-.02-1.36-.1-1.93h2.62c-.08.62-.1.96-.1,1.89v5.95h2.9c1.02,0,1.43-.01,1.99-.08v2.3c-.44-.06-1.03-.08-1.99-.08h-3.65Z"/>
    <path d="m852.59,703.8c-.1-.58-.17-.89-.29-1.3l-.32-1.02h-3.42l-.32,1.02c-.16.48-.24.85-.3,1.3h-2.81c.18-.36.29-.65.58-1.46l2.59-7.22c.22-.59.32-.95.38-1.29h3.13c.08.35.17.66.41,1.29l2.6,7.22c.23.64.42,1.13.58,1.46h-2.81Zm-2.34-7.93l-1.12,3.6h2.25l-1.14-3.6Z"/>
    <path d="m858,703.8c-.91,0-1.26.01-1.78.04.07-.52.1-.92.1-1.76v-6.56c0-.64-.02-1.15-.1-1.73.61.04.78.04,1.76.04h3.14c1.94,0,3.08.94,3.08,2.52,0,.73-.24,1.31-.7,1.71-.26.23-.48.35-.97.53.59.13.9.28,1.25.58.52.46.78,1.1.78,1.89,0,1.73-1.22,2.75-3.31,2.75h-3.26Zm2.78-6.13c.64,0,1.03-.37,1.03-.96s-.37-.92-1.05-.92h-2.09v1.88h2.11Zm-2.11,4.15h2.21c.75,0,1.21-.42,1.21-1.13s-.46-1.1-1.22-1.1h-2.19v2.23Z"/>
    <path d="m880.58,703.8c-.1-.58-.17-.89-.29-1.3l-.32-1.02h-3.42l-.32,1.02c-.16.48-.24.85-.3,1.3h-2.81c.18-.36.29-.65.58-1.46l2.59-7.22c.22-.59.32-.95.38-1.29h3.13c.08.35.17.66.41,1.29l2.6,7.22c.23.64.42,1.13.58,1.46h-2.81Zm-2.34-7.93l-1.12,3.6h2.25l-1.14-3.6Z"/>
    <path d="m891.74,703.89c-.52-.06-.95-.08-1.98-.08h-3.78c-.91,0-1.25.01-1.76.04.07-.48.1-.92.1-1.75v-6.55c0-.74-.02-1.16-.1-1.75.49.02.83.04,1.76.04h3.83c.82,0,1.22-.02,1.79-.08v2.24c-.55-.06-.98-.08-1.79-.08h-3.12v1.76h2.59c.79,0,1.08-.01,1.8-.08v2.22c-.56-.06-.97-.08-1.8-.08h-2.59v2.01h3.09c.91,0,1.44-.02,1.96-.08v2.24Z"/>
    <path d="m899.03,703.8c-.07-.38-.22-.88-.59-1.87-.38-1.04-.53-1.32-.83-1.58-.25-.23-.55-.32-.94-.32h-1.22v1.97c0,.82.02,1.26.1,1.81h-2.58c.07-.55.1-.91.1-1.8v-6.45c0-.74-.02-1.19-.1-1.76.53.02.97.04,1.79.04h3.12c1.94,0,3.07,1.01,3.07,2.73,0,.85-.24,1.52-.71,1.97-.3.28-.55.41-1.14.6.61.19.89.47,1.27,1.32.18.38.35.79.89,2.09.13.34.28.64.58,1.27h-2.81Zm-1.7-5.83c.71,0,1.14-.43,1.14-1.12s-.38-1.02-1.13-1.02h-1.88v2.13h1.87Z"/>
    <path d="m905.47,693.82c-.07.49-.1.9-.1,1.77v6.43c0,.83.02,1.27.1,1.78h-2.64c.07-.47.1-.97.1-1.78v-6.43c0-.9-.02-1.25-.1-1.77h2.64Z"/>
    <path d="m913.76,703.8c-.1-.58-.17-.89-.29-1.3l-.32-1.02h-3.42l-.32,1.02c-.16.48-.24.85-.3,1.3h-2.81c.18-.36.29-.65.58-1.46l2.59-7.22c.22-.59.32-.95.38-1.29h3.13c.08.35.17.66.41,1.29l2.6,7.22c.23.64.42,1.13.58,1.46h-2.81Zm-2.34-7.93l-1.12,3.6h2.25l-1.14-3.6Z"/>
    <path d="m919.18,703.8c-.83,0-1.32.01-1.78.04.07-.42.1-.95.1-1.75v-6.33c0-.84-.02-1.36-.1-1.93h2.62c-.08.62-.1.96-.1,1.89v5.95h2.9c1.02,0,1.43-.01,1.99-.08v2.3c-.44-.06-1.03-.08-1.99-.08h-3.65Z"/>
    <path d="m929.74,695.55c0-.82-.02-1.21-.11-1.76.48.02.78.04,1.78.04h2.51c1.47,0,2.66.41,3.47,1.19.88.86,1.32,2.12,1.32,3.72s-.48,2.96-1.39,3.87c-.8.79-1.94,1.2-3.37,1.2h-2.53c-.92,0-1.26.01-1.76.04.07-.53.1-.92.1-1.75v-6.54Zm3.98,6.15c.78,0,1.33-.2,1.76-.63.49-.5.75-1.31.75-2.3s-.23-1.76-.7-2.23c-.42-.42-1-.61-1.86-.61h-1.57v5.78h1.61Z"/>
    <path d="m942.54,693.82c-.07.49-.1.9-.1,1.77v6.43c0,.83.02,1.27.1,1.78h-2.64c.07-.47.1-.97.1-1.78v-6.43c0-.9-.02-1.25-.1-1.77h2.64Z"/>
    <path d="m946.22,700.55c.05.43.13.65.31.89.29.36.79.56,1.4.56.92,0,1.48-.41,1.48-1.08,0-.37-.19-.7-.5-.84-.25-.12-.55-.2-1.8-.49-1.1-.24-1.49-.38-1.93-.7-.75-.53-1.16-1.33-1.16-2.3,0-1.85,1.49-3.01,3.85-3.01,1.52,0,2.69.47,3.33,1.37.3.4.44.76.6,1.44l-2.54.28c-.14-.78-.58-1.1-1.49-1.1-.73,0-1.27.4-1.27.95,0,.34.18.59.56.77q.24.11,1.65.4c.91.19,1.49.4,1.94.68.86.54,1.29,1.34,1.29,2.45,0,.9-.29,1.67-.84,2.21-.7.67-1.75,1.02-3.15,1.02-1.02,0-2.03-.22-2.67-.59-.6-.34-1.04-.85-1.29-1.54-.12-.29-.18-.56-.26-1.12l2.5-.24Z"/>
    <path d="m953.2,703.8c.07-.53.1-1.07.1-1.78v-6.49c0-.65-.02-1.19-.1-1.75.56.02,1,.04,1.76.04h2.63c2.38,0,3.68,1.14,3.68,3.23s-1.37,3.41-3.69,3.41h-1.89v1.54c0,.71.04,1.3.1,1.81h-2.58Zm4.27-5.39c.84,0,1.33-.47,1.33-1.29s-.47-1.26-1.33-1.26h-1.79v2.55h1.79Z"/>
    <path d="m964.13,703.8c-.83,0-1.32.01-1.78.04.07-.42.1-.95.1-1.75v-6.33c0-.84-.02-1.36-.1-1.93h2.62c-.08.62-.1.96-.1,1.89v5.95h2.9c1.02,0,1.43-.01,1.99-.08v2.3c-.44-.06-1.03-.08-1.99-.08h-3.65Z"/>
    <path d="m977.39,703.8c-.1-.58-.17-.89-.29-1.3l-.32-1.02h-3.42l-.32,1.02c-.16.48-.24.85-.3,1.3h-2.81c.18-.36.29-.65.58-1.46l2.59-7.22c.22-.59.32-.95.38-1.29h3.13c.08.35.17.66.41,1.29l2.6,7.22c.23.64.42,1.13.58,1.46h-2.81Zm-2.34-7.93l-1.12,3.6h2.25l-1.14-3.6Z"/>
    <path d="m985.19,702.03c0,.62.02,1.15.1,1.78h-2.61c.06-.55.1-1.1.1-1.78v-2.22l-2.76-4.53c-.22-.37-.48-.77-.96-1.45h3.03c.13.42.26.73.56,1.26l1.33,2.43,1.33-2.42c.3-.55.47-.92.55-1.27h3.03c-.35.5-.8,1.19-.96,1.45l-2.75,4.53v2.22Z"/>
    <path d="m993.83,695.55c0-.82-.02-1.21-.11-1.76.48.02.78.04,1.78.04h2.51c1.47,0,2.66.41,3.47,1.19.88.86,1.32,2.12,1.32,3.72s-.48,2.96-1.39,3.87c-.8.79-1.94,1.2-3.37,1.2h-2.53c-.92,0-1.26.01-1.76.04.07-.53.1-.92.1-1.75v-6.54Zm3.98,6.15c.78,0,1.33-.2,1.76-.63.49-.5.75-1.31.75-2.3s-.23-1.76-.7-2.23c-.42-.42-1-.61-1.86-.61h-1.57v5.78h1.61Z"/>
    <path d="m1011.51,703.89c-.52-.06-.95-.08-1.98-.08h-3.78c-.91,0-1.25.01-1.76.04.07-.48.1-.92.1-1.75v-6.55c0-.74-.02-1.16-.1-1.75.49.02.83.04,1.76.04h3.83c.82,0,1.22-.02,1.79-.08v2.24c-.55-.06-.98-.08-1.79-.08h-3.12v1.76h2.59c.79,0,1.08-.01,1.8-.08v2.22c-.56-.06-.97-.08-1.8-.08h-2.59v2.01h3.09c.91,0,1.44-.02,1.96-.08v2.24Z"/>
    <path d="m1016.91,700.89q.1.32.23.83c.14-.53.17-.6.23-.83l1.74-5.77c.16-.55.24-.89.28-1.29h2.82c-.17.36-.28.64-.58,1.46l-2.54,7.22c-.2.59-.32,1-.38,1.3h-3.12c-.06-.31-.18-.72-.38-1.3l-2.55-7.22c-.24-.7-.36-1-.56-1.46h2.81c.05.38.16.85.29,1.29l1.74,5.77Z"/>
    <path d="m1035.22,702.03c.71,1.06.86,1.27,1.27,1.78h-3.12c-.17-.38-.52-1.02-.83-1.52l-1.86-2.97-1.21,1.21v1.51c0,.74.02,1.14.1,1.78h-2.54c.07-.61.1-1.06.1-1.78v-6.43c0-.73-.02-1.2-.1-1.77h2.54c-.07.62-.1,1.02-.1,1.77v2.12l2.39-2.55c.47-.49.78-.9,1.04-1.34h3.24c-.22.22-.3.31-.47.48q-.62.62-.84.84l-2.51,2.63,2.89,4.26Z"/>
    <path d="m1039.99,693.82c-.07.49-.1.9-.1,1.77v6.43c0,.83.02,1.27.1,1.78h-2.64c.07-.47.1-.97.1-1.78v-6.43c0-.9-.02-1.25-.1-1.77h2.64Z"/>
    <path d="m1046.6,701.99c0,.72.02,1.25.1,1.81h-2.65c.07-.56.1-1.06.1-1.81v-6.04h-1.42c-.76,0-.96.01-1.81.08v-2.29c.4.05,1.06.08,1.79.08h5.25c.84,0,1.32-.02,1.87-.08v2.29c-.54-.06-1.01-.08-1.87-.08h-1.35v6.04Z"/>
    <path d="m1055.59,696.23c0-.6-.02-1.08-.1-1.64h2.45c-.06.49-.1,1.07-.1,1.64v.25h.43c.53,0,.8-.01,1.18-.06v1.99c-.36-.05-.67-.07-1.1-.07h-.5v3.07c0,.34.06.5.22.61.13.08.32.13.55.13.31,0,.54-.06.84-.22l.18,1.82c-.54.17-1.01.24-1.66.24-.82,0-1.38-.13-1.76-.42-.46-.35-.62-.76-.62-1.57v-3.67h-.46c-.38,0-.7.02-1.04.07v-2c.35.05.65.07,1.07.07h.43v-.25Z"/>
    <path d="m1060.56,698.09c-.52-1.2-.56-1.31-.72-1.61h2.6c.06.38.22.9.47,1.55l1.1,2.77,1.07-2.72c.34-.83.44-1.18.52-1.6h2.6q-.3.62-.72,1.61l-2.75,6.34c-.48,1.13-1.34,1.64-2.71,1.64-.53,0-.98-.06-1.64-.2l.26-1.91c.4.2.62.26.94.26.46,0,.79-.2.97-.56l.25-.52-2.24-5.06Z"/>
    <path d="m1068.91,705.97c.06-.52.1-1.12.1-1.75v-5.85c0-.78-.02-1.27-.1-1.88h2.36v.41c0,.07-.01.17-.01.23.72-.6,1.46-.85,2.46-.85,1.05,0,1.92.31,2.54.92.64.64.96,1.58.96,2.79s-.36,2.22-1.04,2.9c-.61.61-1.49.95-2.47.95-.56,0-1.17-.12-1.62-.31-.31-.13-.49-.26-.83-.55,0,.11,0,.26.01.43v.83c0,.67.02,1.22.1,1.74h-2.46Zm5.45-4.4c.33-.32.53-.88.53-1.56,0-1.22-.65-1.93-1.78-1.93-1,0-1.81.88-1.81,1.97s.8,1.98,1.88,1.98c.46,0,.86-.16,1.18-.46Z"/>
    <path d="m1080.08,700.81c.12.97.68,1.49,1.63,1.49.48,0,.9-.16,1.21-.44.18-.17.26-.3.36-.61l2.09.59c-.28.62-.46.9-.79,1.24-.68.67-1.64,1.02-2.83,1.02s-2.1-.33-2.78-1.02c-.71-.72-1.09-1.74-1.09-2.93,0-2.38,1.52-3.95,3.81-3.95,1.87,0,3.18,1.02,3.6,2.81.1.38.14.89.18,1.57,0,.05,0,.12.01.24h-5.4Zm3.12-1.66c-.17-.77-.68-1.18-1.51-1.18s-1.37.38-1.57,1.18h3.08Z"/>
    <path d="m1086.3,698.86c.37.06.71.08,1.16.08h2.37c.46,0,.79-.02,1.16-.08v2.28c-.4-.06-.72-.08-1.16-.08h-2.37c-.44,0-.77.02-1.16.08v-2.28Z"/>
    <path d="m1099.04,703.8c-.1-.58-.17-.89-.29-1.3l-.32-1.02h-3.42l-.32,1.02c-.16.48-.24.85-.3,1.3h-2.81c.18-.36.29-.65.58-1.46l2.59-7.22c.22-.59.32-.95.38-1.29h3.13c.08.35.17.66.41,1.29l2.6,7.22c.23.64.42,1.13.58,1.46h-2.81Zm-2.34-7.93l-1.12,3.6h2.25l-1.14-3.6Z"/>
    <path d="m1108.68,696.48c.02.29.08.54.23,1.03l1.12,3.73s.02.07.05.13c.04.12.04.13.1.34.04-.11.05-.17.06-.22.01-.02.02-.06.04-.12.02-.06.04-.11.05-.14l1.12-3.72c.13-.44.2-.77.23-1.03h2.66c-.24.54-.34.77-.49,1.16l-2.01,5.15c-.2.52-.26.71-.32,1.01h-2.63c-.06-.3-.12-.49-.32-1.01l-2.01-5.15c-.07-.17-.24-.55-.5-1.16h2.66Z"/>
    <path d="m1116.92,700.81c.12.97.68,1.49,1.63,1.49.48,0,.9-.16,1.21-.44.18-.17.26-.3.36-.61l2.09.59c-.28.62-.46.9-.79,1.24-.68.67-1.64,1.02-2.83,1.02s-2.1-.33-2.78-1.02c-.71-.72-1.09-1.74-1.09-2.93,0-2.38,1.52-3.95,3.81-3.95,1.87,0,3.18,1.02,3.6,2.81.1.38.14.89.18,1.57,0,.05,0,.12.01.24h-5.4Zm3.12-1.66c-.17-.77-.68-1.18-1.51-1.18s-1.37.38-1.57,1.18h3.08Z"/>
    <path d="m1128.68,698.64c-.55-.17-.85-.23-1.22-.23-.61,0-1.08.22-1.43.65-.23.29-.31.54-.36,1.07v1.87c0,.77.02,1.22.1,1.8h-2.48c.07-.6.1-1.03.1-1.81v-3.69c0-.88-.02-1.3-.1-1.81h2.39v.95c.59-.77,1.31-1.09,2.4-1.09.38,0,.62.02,1.19.14l-.58,2.16Z"/>
    <path d="m1131.06,693.74c.43.07.74.08,1.44.08h1.52c.85,0,1.01,0,1.49-.05-.06.64-.08,1.14-.08,1.93v6.28c0,.72.02,1.22.1,1.81h-2.61c.07-.55.1-1.12.1-1.81v-6.12h-.48c-.47,0-.94.02-1.46.08v-2.22Z"/>
    <path d="m1141.65,701.38v2.42h-2.42v-2.42h2.42Z"/>
    <path d="m1143.98,702.9c-.4-.4-.7-.85-.88-1.33-.31-.85-.47-1.77-.47-2.75,0-1.26.3-2.57.76-3.32.73-1.22,1.98-1.89,3.49-1.89,1.16,0,2.18.4,2.91,1.12.4.4.7.85.88,1.33.31.85.47,1.78.47,2.76,0,1.26-.3,2.58-.75,3.33-.72,1.2-1.98,1.87-3.5,1.87-1.18,0-2.17-.38-2.9-1.12Zm1.12-4.17c0,2.15.61,3.25,1.8,3.25s1.77-1.08,1.77-3.21-.62-3.13-1.79-3.13-1.79,1.14-1.79,3.09Z"/>
  </g>
  <g>
    <path d="m612.01,28.17h-1.24v-6.93h-4.37v-1.1h5.61v8.03Z"/>
    <path d="m605.44,28.17h-1.25v-8.03h1.25v8.03Z"/>
    <path d="m603.18,24.15c0,2.56-1.62,4.13-4.28,4.13-.97,0-1.87-.22-2.56-.64l.29-1.04c.63.37,1.46.58,2.28.58,1.87,0,2.98-1.12,2.98-3.03s-1.11-3.03-3.05-3.03c-.62,0-1.22.11-1.71.32v2.29h2.7v1.03h-3.91v-4.11c.78-.4,1.88-.63,2.92-.63,2.72,0,4.35,1.55,4.35,4.13Z"/>
    <path d="m589.73,23.79h3.74v-3.65h1.21v8.03h-1.21v-3.28h-3.74v3.28h-1.21v-8.03h1.21v3.65Z"/>
    <path d="m585.03,27.07h2.73v1.1h-6.71v-1.1h2.73v-6.93h1.25v6.93Z"/>
    <path d="m581.4,24.15c0,2.57-1.57,4.13-4.18,4.13-.98,0-1.87-.22-2.64-.66l.3-1.08c.75.43,1.51.64,2.3.64,1.84,0,2.97-1.14,2.97-3.03s-1.13-3.03-2.97-3.03c-.78,0-1.53.21-2.3.64l-.3-1.08c.77-.44,1.66-.66,2.64-.66,2.61,0,4.18,1.55,4.18,4.13Z"/>
    <path d="m571.44,28.17h-1.64l-2.92-8.03h1.33l.69,2.01h3.43l.69-2.01h1.33l-2.93,8.03Zm-2.16-4.92l1.33,3.88h.02l1.33-3.88h-2.68Z"/>
    <path d="m566.3,28.17h-5.5v-1.1h4.29v-2.45h-4.07v-1.08h4.07v-3.4h1.21v8.03Z"/>
    <path d="m559.76,28.17h-5.28v-1.08h4.07v-2.22h-3.85v-1.06h3.85v-2.6h-4.07v-1.08h5.28v8.03Z"/>
    <path d="m550.71,28.17h-1.24v-6.93h-4.37v-1.1h5.61v8.03Z"/>
    <path d="m541.77,28.17h-1.64l-2.92-8.03h1.33l.69,2.01h3.43l.69-2.01h1.33l-2.93,8.03Zm-2.16-4.92l1.33,3.88h.02l1.33-3.88h-2.68Z"/>
    <path d="m536.64,28.17h-2.48c-2.11,0-3.14-.64-3.14-1.95,0-.96.55-1.61,1.51-1.8v-.02c-1.21-.19-1.84-.87-1.84-2,0-1.52,1.12-2.26,3.41-2.26h2.53v8.03Zm-4.71-5.65c0,.9.68,1.31,2.18,1.31h1.32v-2.61h-1.32c-1.51,0-2.18.4-2.18,1.3Zm2.18,2.35c-1.29,0-1.87.36-1.87,1.14s.55,1.08,1.87,1.08h1.32v-2.22h-1.32Z"/>
    <path d="m609.87,17.17h-1.64l-2.92-8.03h1.33l.69,2.01h3.43l.69-2.01h1.33l-2.93,8.03Zm-2.16-4.92l1.33,3.88h.02l1.33-3.88h-2.68Z"/>
    <path d="m604.74,17.17h-5.28v-1.08h4.07v-2.22h-3.85v-1.06h3.85v-2.6h-4.07v-1.08h5.28v8.03Z"/>
    <path d="m598.27,17.17h-2.42c-2.35,0-3.41-.74-3.41-2.39,0-1.53.91-2.33,2.79-2.42l-3.23-3.22h1.57l3.18,3.21h.31v-3.21h1.21v8.03Zm-2.48-3.76c-1.5,0-2.12.4-2.12,1.33s.63,1.33,2.12,1.33h1.27v-2.66h-1.27Z"/>
    <path d="m591.09,17.17h-1.25v-8.03h1.25v8.03Z"/>
    <path d="m586.22,17.17h-1.64l-2.92-8.03h1.33l.69,2.01h3.43l.69-2.01h1.33l-2.93,8.03Zm-2.16-4.92l1.33,3.88h.02l1.33-3.88h-2.68Z"/>
    <path d="m581.09,17.17h-1.24v-6.93h-4.37v-1.1h5.61v8.03Z"/>
    <path d="m572.04,17.17h-2.2c-2.83,0-4.18-1.3-4.18-4.02s1.35-4.02,4.18-4.02h2.2v8.03Zm-5.15-4.02c0,2.04.87,2.92,2.87,2.92h1.07v-5.83h-1.07c-2,0-2.87.88-2.87,2.92Z"/>
    <path d="m564.64,17.17h-1.25v-8.03h1.25v8.03Z"/>
    <path d="m562.25,9.63l-.31,1.1c-.72-.36-1.72-.6-2.56-.6-1.12,0-1.76.43-1.76,1.19,0,.85.78,1.08,2.11,1.44,1.47.4,2.5,1,2.5,2.35s-1.1,2.17-3.03,2.17c-.97,0-2-.2-2.67-.51l.31-1.1c.66.31,1.55.51,2.38.51,1.14,0,1.75-.39,1.75-1.08,0-.81-.72-1.05-1.97-1.4-1.57-.44-2.64-1-2.64-2.4s1.13-2.28,3.1-2.28c1.03,0,2.11.23,2.79.6Z"/>
    <path d="m555.31,17.17h-2.31c-2.39,0-3.52-.86-3.52-2.67s1.1-2.67,3.36-2.67h1.27v-2.68h1.21v8.03Zm-2.33-4.25c-1.58,0-2.27.47-2.27,1.57s.68,1.57,2.27,1.57h1.12v-3.15h-1.12Z"/>
    <path d="m548.7,17.17h-1.24v-6.93h-4.37v-1.1h5.61v8.03Z"/>
    <path d="m539.77,17.17h-1.64l-2.92-8.03h1.33l.69,2.01h3.43l.69-2.01h1.33l-2.93,8.03Zm-2.16-4.92l1.33,3.88h.02l1.33-3.88h-2.68Z"/>
    <path d="m533.52,12.15l3.06,5.02h-1.39l-2.29-3.93h-.02l-2.29,3.93h-1.39l3.06-5.02v-3.01h1.25v3.01Z"/>
    <path d="m526.1,17.17h-2.2c-2.83,0-4.18-1.3-4.18-4.02s1.35-4.02,4.18-4.02h2.2v8.03Zm-5.15-4.02c0,2.04.87,2.92,2.87,2.92h1.07v-5.83h-1.07c-2,0-2.87.88-2.87,2.92Z"/>
    <path d="m518.81,17.17h-5.28v-1.08h4.07v-2.22h-3.85v-1.06h3.85v-2.6h-4.07v-1.08h5.28v8.03Z"/>
    <path d="m513.13,17.17h-1.33l-2.34-6.82h-.02l-2.34,6.82h-1.33l2.89-8.03h1.58l2.89,8.03Z"/>
    <path d="m502.59,17.17h-1.21v-3.49h-.02l-3.72,3.49h-1.54l4.06-3.83-4.17-4.2h1.54l3.83,3.86h.02v-3.86h1.21v8.03Z"/>
    <path d="m495.22,17.17h-1.25v-8.03h1.25v8.03Z"/>
    <path d="m490.37,16.07h2.73v1.1h-6.71v-1.1h2.73v-6.93h1.25v6.93Z"/>
  </g>
  <g>
    <path d="m318.72,432.15v-1.13h.68v-.03c-.53-.45-.79-1.09-.79-1.95,0-1.41.73-2.06,2.31-2.06h3.52v1.19h-3.3c-1.06,0-1.54.38-1.54,1.2,0,.92.6,1.6,1.43,1.6h3.41v1.19h-5.72Z"/>
    <path d="m321.58,426.36c-1.85,0-2.97-1.05-2.97-2.78s1.03-2.61,2.87-2.61c.2,0,.46.01.59.02v4.19c1-.09,1.48-.7,1.48-1.87,0-.62-.13-1.38-.34-1.91l.96-.15c.23.56.37,1.31.37,2.02,0,1.98-1.07,3.09-2.97,3.09Zm-.44-4.27c-1.05.07-1.56.56-1.56,1.49s.54,1.51,1.56,1.61v-3.09Z"/>
    <path d="m321.58,420.58c-1.89,0-2.97-1.04-2.97-2.86s1.08-2.86,2.97-2.86,2.97,1.04,2.97,2.86-1.08,2.86-2.97,2.86Zm0-4.53c-1.29,0-1.98.59-1.98,1.67s.69,1.67,1.98,1.67,1.98-.59,1.98-1.67-.69-1.67-1.98-1.67Z"/>
    <path d="m318.72,414.08v-1.13h.68v-.03c-.53-.45-.79-1.09-.79-1.95,0-1.41.73-2.06,2.31-2.06h3.52v1.19h-3.3c-1.06,0-1.54.37-1.54,1.2,0,.92.6,1.6,1.43,1.6h3.41v1.19h-5.72Z"/>
    <path d="m321.58,408.29c-1.89,0-2.97-1.04-2.97-2.86s1.08-2.86,2.97-2.86,2.97,1.05,2.97,2.86-1.08,2.86-2.97,2.86Zm0-4.53c-1.29,0-1.98.59-1.98,1.67s.69,1.67,1.98,1.67,1.98-.59,1.98-1.67-.69-1.67-1.98-1.67Z"/>
    <path d="m321.58,402.15c-1.86,0-2.97-.91-2.97-2.44,0-.77.29-1.44.79-1.85v-.02h-2.99v-1.19h8.03v1.13h-.68v.03c.51.42.79,1.11.79,1.89,0,1.53-1.11,2.44-2.97,2.44Zm.54-4.31h-1.08c-.83,0-1.44.68-1.44,1.6,0,.99.72,1.55,1.98,1.55s1.98-.56,1.98-1.55c0-.91-.62-1.6-1.44-1.6Z"/>
    <path d="m321.58,395.87c-1.85,0-2.97-1.04-2.97-2.78s1.03-2.61,2.87-2.61c.2,0,.46.01.59.02v4.19c1-.09,1.48-.7,1.48-1.87,0-.62-.13-1.38-.34-1.91l.96-.15c.23.56.37,1.31.37,2.02,0,1.98-1.07,3.09-2.97,3.09Zm-.44-4.27c-1.05.07-1.56.56-1.56,1.49s.54,1.51,1.56,1.61v-3.09Z"/>
    <path d="m322.79,386.47h-3.08v1.32h-.99v-1.32h-1.87v-1.2h1.87v-1.99h.99v1.99h2.75c.78,0,1.05-.22,1.05-.9,0-.34-.07-.69-.17-.98l1.01-.11c.14.47.2.89.2,1.33,0,1.32-.51,1.86-1.76,1.86Z"/>
    <path d="m321.58,382.96c-1.89,0-2.97-1.04-2.97-2.86s1.08-2.86,2.97-2.86,2.97,1.05,2.97,2.86-1.08,2.86-2.97,2.86Zm0-4.53c-1.29,0-1.98.59-1.98,1.67s.69,1.67,1.98,1.67,1.98-.59,1.98-1.67-.69-1.67-1.98-1.67Z"/>
    <path d="m322.24,376.68h-3.52v-1.19h3.3c1.06,0,1.54-.35,1.54-1.14,0-.89-.6-1.54-1.43-1.54h-3.41v-1.19h5.72v1.13h-.68v.03c.53.45.79,1.06.79,1.89,0,1.38-.73,2-2.31,2Z"/>
    <path d="m321.58,370.84c-1.87,0-2.97-1.14-2.97-3.09,0-.65.12-1.2.41-1.75l.96.21c-.26.51-.37.98-.37,1.46,0,1.24.73,1.96,1.98,1.96s1.98-.72,1.98-1.96c0-.48-.11-.96-.37-1.46l.96-.21c.29.55.41,1.1.41,1.75,0,1.95-1.1,3.09-2.97,3.09Z"/>
    <path d="m316.41,364.96v-1.19h2.99v-.02c-.53-.45-.79-1.08-.79-1.9,0-1.42.73-2.07,2.31-2.06h3.52v1.19h-3.3c-1.06-.01-1.54.37-1.54,1.2,0,.92.6,1.58,1.44,1.6h3.4v1.19h-8.03Z"/>
    <path d="m324.14,356.56l-.97-.17c.24-.64.38-1.31.38-1.96,0-.85-.24-1.27-.73-1.27-.41,0-.59.29-.82,1.25-.32,1.33-.76,2.17-1.8,2.17s-1.6-.83-1.6-2.33c0-.7.12-1.49.34-2.1l.97.18c-.22.59-.32,1.19-.32,1.78,0,.87.21,1.28.64,1.28.37,0,.56-.25.78-1.21.31-1.29.77-2.21,1.85-2.21s1.68.88,1.68,2.34c0,.77-.17,1.68-.41,2.24Z"/>
    <path d="m321.58,351.61c-1.85,0-2.97-1.04-2.97-2.78s1.03-2.61,2.87-2.61c.2,0,.46.01.59.02v4.19c1-.09,1.48-.7,1.48-1.87,0-.62-.13-1.38-.34-1.91l.96-.15c.23.56.37,1.31.37,2.02,0,1.98-1.07,3.09-2.97,3.09Zm-.44-4.27c-1.05.07-1.56.56-1.56,1.49s.54,1.51,1.56,1.61v-3.09Z"/>
    <path d="m318.72,345.46v-1.13h.68v-.03c-.53-.45-.79-1.09-.79-1.95,0-1.41.73-2.06,2.31-2.06h3.52v1.19h-3.3c-1.06,0-1.54.37-1.54,1.2,0,.92.6,1.6,1.43,1.6h3.41v1.19h-5.72Z"/>
    <path d="m324.14,339.64l-.97-.17c.24-.64.38-1.31.38-1.96,0-.85-.24-1.27-.73-1.27-.41,0-.59.29-.82,1.25-.32,1.33-.76,2.17-1.8,2.17s-1.6-.83-1.6-2.33c0-.7.12-1.49.34-2.1l.97.18c-.22.59-.32,1.19-.32,1.78,0,.87.21,1.28.64,1.28.37,0,.56-.25.78-1.21.31-1.29.77-2.21,1.85-2.21s1.68.88,1.68,2.34c0,.77-.17,1.68-.41,2.24Z"/>
    <path d="m321.58,334.69c-1.89,0-2.97-1.04-2.97-2.86s1.08-2.86,2.97-2.86,2.97,1.04,2.97,2.86-1.08,2.86-2.97,2.86Zm0-4.53c-1.29,0-1.98.59-1.98,1.67s.69,1.67,1.98,1.67,1.98-.59,1.98-1.67-.69-1.67-1.98-1.67Z"/>
    <path d="m318.72,328.19v-1.14h1.1v-.03c-.76-.54-1.21-1.5-1.21-2.56h1.05c0,1.41.9,2.54,2.04,2.54h2.75v1.2h-5.72Z"/>
    <path d="m318.72,321.3v-1.11h.68v-.03c-.5-.41-.79-.99-.79-1.77s.28-1.31.79-1.53v-.02c-.54-.43-.79-.99-.79-1.77,0-1.24.63-1.79,2.04-1.79h3.8v1.17h-3.52c-.91,0-1.32.3-1.32.97,0,.79.56,1.3,1.43,1.3h3.41v1.17h-3.63c-.78,0-1.21.35-1.21.97,0,.74.62,1.3,1.43,1.3h3.41v1.17h-5.72Z"/>
    <path d="m321.58,312.66c-1.89,0-2.97-1.04-2.97-2.86s1.08-2.86,2.97-2.86,2.97,1.05,2.97,2.86-1.08,2.86-2.97,2.86Zm0-4.53c-1.29,0-1.98.59-1.98,1.67s.69,1.67,1.98,1.67,1.98-.59,1.98-1.67-.69-1.67-1.98-1.67Z"/>
    <path d="m321.58,306.52c-1.86,0-2.97-.91-2.97-2.44,0-.77.29-1.44.79-1.85v-.02h-2.99v-1.19h8.03v1.13h-.68v.03c.51.42.79,1.11.79,1.89,0,1.53-1.11,2.44-2.97,2.44Zm.54-4.31h-1.08c-.83,0-1.44.68-1.44,1.6,0,.99.72,1.55,1.98,1.55s1.98-.56,1.98-1.55c0-.91-.62-1.6-1.44-1.6Z"/>
    <path d="m322.24,299.99h-3.52v-1.19h3.3c1.06,0,1.54-.35,1.54-1.14,0-.89-.6-1.54-1.43-1.54h-3.41v-1.19h5.72v1.13h-.68v.03c.53.45.79,1.06.79,1.89,0,1.38-.73,2-2.31,2Z"/>
    <path d="m316.41,293.64v-1.21h8.03v1.21h-8.03Z"/>
    <path d="m321.58,291.56c-1.85,0-2.97-1.04-2.97-2.78s1.03-2.61,2.87-2.61c.2,0,.46.01.59.02v4.19c1-.09,1.48-.7,1.48-1.87,0-.62-.13-1.38-.34-1.91l.96-.15c.23.56.37,1.31.37,2.02,0,1.98-1.07,3.09-2.97,3.09Zm-.44-4.27c-1.05.07-1.56.56-1.56,1.49s.54,1.51,1.56,1.61v-3.09Z"/>
  </g>
</svg>